<?xml version="1.0" encoding="UTF-8"?>
<svg width="752pt" height="752pt" version="1.1" viewBox="0 0 752 752" xmlns="http://www.w3.org/2000/svg">
 <path d="m368.85 165.18 120.94 69.824-130.93 130.93-57.289-57.281c-12.191-12.195-29.969-16.957-46.625-12.496-16.66 4.4648-29.672 17.473-34.137 34.133-4.4648 16.656 0.30078 34.434 12.492 46.629l91.426 91.418c9.0547 9.0508 21.332 14.137 34.133 14.137s25.074-5.0859 34.129-14.137l154.18-154.18v159.87c0 2.9961-0.78906 5.9375-2.2852 8.5312-1.4961 2.5898-3.6484 4.7461-6.2422 6.2422l-169.79 98.027c-2.5938 1.4961-5.5352 2.2852-8.5273 2.2852-2.9961 0-5.9375-0.78906-8.5312-2.2852l-169.79-98.027c-2.5938-1.4961-4.75-3.6523-6.2461-6.2422-1.4961-2.5938-2.2852-5.5352-2.2852-8.5312v-196.05c0-6.0938 3.2539-11.723 8.5312-14.77l169.79-98.027c2.5938-1.4961 5.5352-2.2852 8.5312-2.2852 2.9922 0 5.9336 0.78906 8.5273 2.2852zm-82.453 158.64c-6.7734-6.7734-16.648-9.4219-25.902-6.9414-9.2539 2.4805-16.484 9.707-18.965 18.965-2.4766 9.2539 0.16797 19.129 6.9414 25.902l91.422 91.418c5.0312 5.0312 11.852 7.8555 18.965 7.8555 7.1094 0 13.93-2.8242 18.961-7.8555l192.86-192.86c6.7656-6.7773 9.4062-16.645 6.9258-25.895-2.4805-9.25-9.707-16.477-18.957-18.957s-19.117 0.16016-25.895 6.9297l-173.89 173.9z" fill="#e4cd76"/>
</svg>
