<?xml version="1.0" encoding="UTF-8"?>
<svg width="752pt" height="752pt" version="1.1" viewBox="0 0 752 752" xmlns="http://www.w3.org/2000/svg">
 <path d="m370.7 143.93c-68.965 0-129.21 38.09-160.75 94.473-14.434 13.09-26.852 28.359-36.582 45.141-50.68 88.43-20.809 201.53 67.289 252.54 15.605 8.8945 31.883 15.27 48.496 19.297 71.316 70.141 185.93 70.309 257.41 0.16797 74.168-66.281 75.176-196.66 5.707-258.08-14.602-87.258-90.449-153.54-181.57-153.54zm-37.922 13.594v28.695c1.0078 8.8945 6.543 13.762 12.082 17.117 6.7109 4.0273 15.773 6.7109 25.844 6.8789 10.234-0.16797 19.297-2.8516 26.008-6.8789 6.7109-4.0273 11.578-9.9023 11.578-16.949v-28.863c35.742 7.7148 67.289 26.512 91.117 52.688l-25.004 14.43c-6.0391 3.6914-8.7266 10.906-8.7266 18.793-0.16797 8.0547 2.1797 17.117 7.2148 26.008 5.0352 7.5508 11.578 15.102 18.625 19.129 6.8789 3.8594 14.598 5.2031 20.641 1.6797l25.004-14.43c5.2031 16.445 7.8867 34.23 7.8867 52.691 0 18.457-2.8516 36.078-8.0547 52.859-8.2227-4.8672-16.613-9.7344-25.004-14.43-7.3828-3.5234-14.094-1.1758-20.641 1.8477-6.8789 3.8594-13.594 10.402-18.625 19.129-5.0352 8.8945-7.3828 17.953-7.2148 25.844 0.16797 7.8867 2.8516 15.102 8.8945 18.793l24.836 14.262c-23.828 26.176-55.207 44.969-90.949 52.855v-28.863c0-7.2148-4.8672-12.922-11.578-17.117-6.7109-4.0273-15.773-6.543-26.008-6.7109-10.066 0.16797-19.129 2.6836-25.844 6.7109-6.8789 4.0273-11.914 9.9023-12.082 17.117v28.863c-35.574-7.8867-66.953-26.68-90.781-52.855l24.668-14.262c6.0391-3.6914 8.7266-10.906 8.8945-18.793 0.16797-7.8867-2.1797-16.949-7.2148-25.844v-0.16797c-5.0352-8.7266-11.746-15.27-18.625-19.129-7.0469-4.0273-14.094-4.1953-20.641-1.8477-8.2227 4.8672-16.613 9.7344-25.004 14.598-5.2031-16.781-8.0547-34.398-8.0547-52.859 0-18.457 2.6836-36.246 7.8867-52.691l25.004 14.43c6.0391 3.5234 13.762 2.1797 20.641-1.6797 6.8789-3.6914 13.594-10.234 18.625-19.129 5.0352-8.7266 7.3828-17.953 7.2148-26.008 0-7.8867-2.6836-15.102-8.7266-18.793l-25.004-14.43c25.168-28.023 62.59-47.32 91.117-52.691zm37.754 71.648c-54.535 0-99.004 44.301-99.004 99.34 0 54.871 44.469 99.508 99.004 99.508 54.703 0 99.004-44.637 99.004-99.508 0-55.039-44.297-99.34-99.004-99.34zm-204.21 94.141 20.301 11.746c1.0078 28.359 8.5586 55.039 20.809 78.867-5.5391-2.3477-11.41-1.5117-16.109 0.16797-8.3906 5.0352-16.781 9.7344-25.004 14.598-10.57-33.73-10.906-70.477 0-105.38zm418 47.152c10.738 34.398 10.906 71.316 0 105.55-8.2227-4.6992-16.613-9.5664-25.004-14.262-7.5508-3.6914-14.262-1.3438-20.641 1.6797-7.0469 3.8594-13.594 10.57-18.793 19.297-5.0352 8.8945-7.3828 17.789-7.2148 25.844 0.16797 7.8867 2.8516 15.102 9.0625 18.793l24.668 14.262c-2.0156 2.3438-4.0312 4.5273-6.3789 6.707-24.164 23.828-53.531 39.098-84.406 45.98v-28.863c-0.16797-7.0469-4.8672-12.922-11.746-16.949-10.906-5.2031-20.137-7.2148-30.707-6.375 36.918-19.465 62.926-46.48 78.195-74.168 24.836-21.648 43.629-49.836 54.199-81.719 4.8672 1.3438 9.7344 1.1758 13.93-1.1758l24.836-14.598zm-346.68 85.41c18.961 19.969 42.453 35.742 68.633 45.645-6.375 4.0273-11.074 9.7344-11.242 16.613v29.031c-16.785-3.8633-33.395-10.238-49.168-19.469h-0.50391c-15.773-9.0586-29.535-20.473-41.281-33.223l24.836-14.598c9.0625-8.7266 9.9023-14.262 8.7266-23.996zm233.58 27.52c-25.676 33.227-61.586 55.207-100.68 63.766v-29.031c0-1.6797-0.33594-3.3555-0.83984-4.8672 38.762-0.16797 74.168-12.922 101.52-29.871zm-84.742 69.137c-3.8594 3.6914-6.375 7.8867-6.375 12.922v28.695c-26.176-5.707-51.18-17.453-72.996-35.238 30.203 2.5156 54.199 1.3438 79.371-6.375z" fill="#e4cd76"/>
</svg>
