<?xml version="1.0" encoding="UTF-8"?>
<svg width="752pt" height="752pt" version="1.1" viewBox="0 0 752 752" xmlns="http://www.w3.org/2000/svg">
 <g fill="#e4cd76">
  <path d="m572.22 303.27c-5.2812-5.2031-11.102-9.7969-17.324-13.738-3.293-2.0898-3.5234-6.707-0.48828-9.1562 20.34-16.383 30.797-40.355 30.797-62.906 0-37.516-23.352-63.66-64.062-71.723l-5.6367-1.1133c-3.9258-0.77734-7.3828 2.6758-6.6055 6.6016l1.2188 6.1719c4.5078 22.594 0.95703 39.691-10.008 48.148-21.336 16.453-54.488 12.641-74.301 10.371l-0.27344-0.03125c-14.43-3.082-30.844-4.8906-49.527-4.8906-18.27 0-34.359 1.7344-48.555 4.6875l-2.0312 0.23047c-19.816 2.2734-52.977 6.082-74.305-10.371-10.969-8.457-14.52-25.559-10.004-48.152l1.2188-6.168c0.77734-3.9258-2.6836-7.3828-6.6094-6.6055l-5.6367 1.1172c-40.719 8.0703-64.066 34.215-64.066 71.727 0 22.656 10.57 46.738 31.094 63.117 3.0547 2.4375 2.832 7.0742-0.46875 9.168-6.1172 3.8828-11.848 8.3906-17.043 13.508-20.156 19.852-31.258 46.949-31.258 76.293 0 13.371 2.5781 32.148 5.6719 45 1.8281 7.5859 7.3438 13.73 14.727 16.258 1.8555 0.63281 3.8711 0.83984 5.8047 0.51953 27.492-4.4766 48.121-17.824 66.637-38.508 2.6055-2.9062 7.3555-2.3242 9.125 1.1562 5.5586 10.934 11.973 21.07 17.801 30.285 8.0547 12.734 15.668 24.762 16.883 32.641l2.3008 18.367c0.22656 1.8008-0.46875 3.5547-1.7773 4.8164-9.2617 8.9688-15.055 21.504-15.055 35.391v31.523c0 30.352 24.602 54.953 54.953 54.953h101.14c30.352 0 54.953-24.602 54.953-54.953v-31.523c0-13.887-5.7891-26.422-15.055-35.391-1.3008-1.2578-2-3.0156-1.7773-4.8164l2.2695-18.09c1.543-8.0977 8.9375-19.816 16.754-32.207 5.8945-9.3398 12.375-19.617 17.98-30.707 1.7695-3.5039 6.5508-4.0859 9.1797-1.1641 17.527 19.469 36.871 34.805 62.156 40.297 0.42969 0.09375 0.91016 0.16016 1.4258 0.20312 7.0195 0.58203 13.609-3.6289 16.68-9.9688 8.0859-16.723 12.332-35.215 12.332-54.07 0.019531-29.348-11.082-56.445-31.238-76.297zm-383 113.7c-7.3438 3.0312-15.781-0.96484-17.945-8.6133-2.6289-9.293-3.9883-18.98-3.9883-28.793 0-24.234 9.0938-46.535 25.605-62.797 9.6406-9.4961 21.52-16.434 34.344-20.582 1.3906 0.41797 2.8086 0.80859 4.2422 1.1758 2.543 0.64453 4.3672 2.8594 4.3672 5.4805v0.73047c0 9.9688-5.5938 18.918-14.25 23.863-16.793 9.5898-30.633 23.586-39.918 40.559-2.6094 4.7734-0.375 10.773 4.6328 12.91l0.21875 0.09375c4.4883 1.918 9.5742 0.070312 11.914-4.1641 6.8828-12.449 16.801-22.895 28.762-30.547 3.7305-2.3867 8.6445 0.4375 8.6445 4.8672 0 7.1328 0.88672 14.07 2.4219 20.805 0.33203 1.4492 0.11719 2.9844-0.66797 4.2461-11.387 18.336-28.508 32.566-48.383 40.766zm52.238-143.23c-2.6523 4.7812-7.3359 4.3906-13.672 2.582-28.164-10.684-42.832-35.73-42.832-58.848 0-21.047 9.2383-36.578 26.977-45.797 3.8047-1.9766 8.2734 0.64453 8.3438 4.9297 0.31641 19.184 6.8828 34.402 19.262 43.949 7.7188 5.957 16.277 9.8711 25.09 12.375 4.4141 1.2539 5.6328 6.8906 2.0547 9.7695-12.266 9.8711-20.41 20.84-25.223 31.039zm42.664 150.41c-13.75-21.727-29.328-46.359-29.328-72.992v-55.32c0-1.1094 0.64844-5.4141 0.82031-6.5156 0.027343-0.18359 0.058593-0.33984 0.10547-0.51953 4.3789-17.887 25.09-43.789 73.371-54.227l0.75391-0.085937-0.011718-0.082031c2.4258-0.51172 4.9297-0.98047 7.5078-1.4062 10.25-1.6875 19.531 6.4375 19.266 16.816-2.8789 112.99-19.125 188.52-30.348 216.38-2.3438 5.8164-7.7461 9.7305-13.961 10.551-0.35156 0.046874-0.66797 0.09375-0.94141 0.14062-3.1914 0.55859-6.207-1.582-6.6094-4.7969l-0.98047-7.8008c-1.8633-12.039-10.105-25.055-19.645-40.141zm178.46 132.86c0 19.891-16.125 36.012-36.012 36.012h-35.48c-3.1055 0-5.6211-2.5195-5.6211-5.6211v-1.7188c0-3.1055 2.5195-5.6211 5.6211-5.6211h10.898c16.875 0 31.242-10.945 36.379-26.105 2.0469-6.0391-2.5898-12.293-8.9648-12.293h-0.26562c-4.1172 0-7.4648 2.7383-8.832 6.5547-2.6953 7.5156-9.8867 12.898-18.316 12.898h-51.977c-8.4297 0-15.625-5.3906-18.316-12.898-1.3672-3.8164-4.7188-6.5547-8.7695-6.5547h-0.27344c-6.4219 0-11.059 6.2578-9.0117 12.293 5.1367 15.16 19.508 26.105 36.379 26.105h10.891c3.1055 0 5.6211 2.5195 5.6211 5.6211v1.7188c0 3.1055-2.5195 5.6211-5.6211 5.6211h-35.48c-19.887 0-36.012-16.121-36.012-36.012v-25.906c0-19.891 16.125-36.012 36.012-36.012h101.14c19.891 0 36.012 16.125 36.012 36.012zm34.625-205.86c0 26.957-15.676 51.801-29.5 73.711-9.293 14.727-17.32 27.453-19.426 39.195l-1.0078 8.0312c-0.40234 3.2148-3.418 5.3555-6.6094 4.7969-1.0078-0.17578-2.6055-0.34766-4.2227-0.48438-3.9414-0.34766-7.3516-2.7812-9.0352-6.3555-11.582-24.598-29.008-101.17-31.996-220.27-0.25391-10.281 8.875-18.488 19.023-16.832 2.3906 0.38672 4.7188 0.82031 6.9766 1.2891l-0.027343 0.25391 2.2695 0.26172c0.023438 0.003906 0.050781 0.003906 0.074219 0.007812 47.312 10.461 67.855 35.828 72.438 53.594 0 0 1.0469 6.2148 1.0469 7.4883zm13.277-77.52c-4.8438-10.219-13.039-21.211-25.375-31.09-3.5742-2.8633-2.3711-8.4883 2.0234-9.7695 8.6211-2.5117 16.977-6.3828 24.539-12.215 12.375-9.5469 18.938-24.762 19.254-43.953 0.070312-4.2812 4.543-6.9062 8.3438-4.9297 17.742 9.2148 26.98 24.75 26.98 45.801 0 22.992-14.504 47.914-42.379 58.691-7.375 2.75-10.699 2.75-13.387-2.5352zm50.707 142.75c-19.18-8.2461-35.695-22.145-46.812-39.922-0.78906-1.2656-1.0039-2.8008-0.67187-4.2539 1.543-6.8086 2.4375-13.832 2.4375-21.051 0-4.3867 4.8555-7.1797 8.543-4.8164 11.926 7.6523 21.812 18.078 28.68 30.5 2.3398 4.2305 7.4219 6.0742 11.867 4.1758l0.21875-0.09375c5.0312-2.1445 7.2773-8.1797 4.6562-12.977-9.4023-17.164-23.461-31.273-40.516-40.859-8.207-4.6133-13.453-13.117-13.453-22.531v-0.24219c0-3.5508 2.3633-6.5703 5.7305-7.4922 0.31641-0.089844 0.63281-0.17578 0.95312-0.26562 1.1172-0.32031 2.3008-0.31641 3.3984 0.0625 12.207 4.2148 23.441 11.043 32.691 20.156 16.516 16.266 25.605 38.57 25.605 62.801 0 9.293-1.2188 18.469-3.5742 27.309-2.25 8.4609-11.703 12.957-19.754 9.5z"/>
  <path d="m281.05 317.25c-4.6875-0.60156-9.1016 2.3438-10.355 6.8984l-0.80078 2.9219c-3.0547 10.73-7.668 26.953 1.7617 44.918 10.973 20.91 39.27 24.895 47.676 25.621 3.6562 0.31641 7.1641-1.5078 9.0078-4.6797 4.4141-7.6055 9.8477-25.984 2.2305-46.633-5.8359-15.82-22.496-25.59-49.52-29.047zm34.32 47.84c0.41016 7-6.793 11.828-13.262 9.1367-5.5977-2.3359-10.949-5.8281-13.684-11.035-2.582-4.9141-3.4922-9.5938-3.4727-14.109 0.027343-6.543 6.7539-10.969 12.875-8.668 8.0039 3.0078 13.016 7.1641 14.961 12.438 1.6016 4.332 2.3594 8.4648 2.582 12.238z"/>
  <path d="m481.55 324.15c-1.25-4.5625-5.6641-7.5-10.352-6.8984h-0.003906c-27.02 3.4531-43.684 13.227-49.512 29.051-7.6133 20.648-2.1836 39.027 2.2266 46.633 1.8438 3.1719 5.3516 4.9961 9.0078 4.6797 8.4062-0.71875 36.703-4.7188 47.672-25.621 9.4336-17.965 4.8203-34.188 1.7656-44.918zm-17.738 39.039c-2.7344 5.2031-8.0859 8.6992-13.684 11.035-6.4688 2.6992-13.672-2.1367-13.262-9.1367 0.22266-3.7695 0.98047-7.9102 2.5703-12.238 1.9453-5.2695 6.957-9.4297 14.965-12.438 6.1289-2.3008 12.848 2.1211 12.875 8.668 0.03125 4.5195-0.88281 9.1914-3.4648 14.109z"/>
 </g>
</svg>
