<?xml version="1.0" encoding="UTF-8"?>
<svg width="752pt" height="752pt" version="1.1" viewBox="0 0 752 752" xmlns="http://www.w3.org/2000/svg">
 <g fill="#e4cd76">
  <path d="m332.15 507.97c1.0078 3.1875 2.2773 6.2891 3.793 9.2734 1.6016 2.957 3.3711 5.8203 5.3047 8.5742 1.1602 1.7773 2.6953 4.1211 4.1875 6.5781l0.63672 1.1172v0.10938c0 0.10938 0.39453 0.70312 0.59375 1.0508h-0.003907c1.9258 3.1367 3.1758 6.6367 3.6641 10.285 0.125 3.8555-1.1172 7.6289-3.5078 10.656-0.94141 1.3359-1.9961 2.5859-2.9805 3.8164l-0.003906-0.003907c-1.168 1.3594-2.2656 2.7812-3.2891 4.2539-0.87109 1.1914-1.4609 2.5625-1.7305 4.0117-0.03125 0.3125-0.03125 0.62891 0 0.94531 0.35156-0.28516 0.72266-0.54688 1.1406-0.83203v-0.003907c1.3086-0.83203 2.6797-1.5664 4.0977-2.1914 1.207-0.59375 2.4766-1.0742 3.707-1.5781 1.457-0.53125 2.8789-1.1641 4.2539-1.8867 2.4219-1.1484 4.5-2.9062 6.0273-5.1094 0.84375-1.4805 1.3633-3.125 1.5156-4.8203v-0.30859c0.10938-0.83594 0.16016-1.6797 0.15234-2.5234 0.023437-0.38672 0.023437-0.77344 0-1.1602 0.011718-0.14453 0.011718-0.29297 0-0.4375-0.56641-4.5156-1.8633-8.9062-3.8359-13.004 0-0.13281 0-0.21875-0.13281-0.32812-0.28516-0.54688-0.52734-1.0977-0.74609-1.6445l-0.17578-0.37109c-0.37109-0.85547-0.76562-1.7109-1.1602-2.543-2.0586-4.2656-3.8398-8.6602-5.3281-13.156-0.37109-1.1602-0.67969-2.3477-0.94141-3.4844-0.13672-0.625-0.23828-1.2539-0.30859-1.8867l-0.57031-4.9766m59.789-221.18c-0.40234 1.9297-1.5742 3.6172-3.2422 4.668-1.0273 0.66016-2.1875 1.082-3.3984 1.2305-0.5625 0.050781-1.1289 0.050781-1.6914 0 0.85156 1.793 1.582 3.6367 2.1953 5.5234 0.68359-0.035156 1.3633-0.11328 2.0391-0.24219 1.1328-0.23438 2.2266-0.63281 3.2422-1.1836 1.8438-1.0508 3.5273-2.3555 5-3.8789-1.2422-2.1328-2.625-4.1758-4.1445-6.1172zm4.3867 6.7305c-0.29297 0.86719-0.72266 1.6797-1.2734 2.4102-0.81641 1.1328-1.8828 2.0586-3.1133 2.7188-1.2422 0.66797-2.6445 0.99219-4.0547 0.94531-0.625 0.003906-1.2461-0.09375-1.8438-0.28516v0.17578c0.64844 2.1523 1.1367 4.3516 1.4688 6.5742l2.0156-0.57031c1.2266-0.4375 2.457-0.85547 3.6602-1.3359 2.1914-0.83203 4.3867-1.7969 6.5781-2.6328l0.003906 0.003906c-0.89062-2.7734-2.043-5.4531-3.4414-8.0039zm3.7695 8.3984c-0.71484 0.75781-1.5078 1.4414-2.3672 2.0391-1.1445 0.80469-2.3828 1.4727-3.6836 1.9922-1.3281 0.5-2.7109 0.83984-4.1211 1.0078-0.73047 0.085938-1.4648 0.085938-2.1914 0 0 0.26172 0 0.52734 0.10938 0.78906v0.003906c0.20312 1.7383 0.24609 3.4922 0.12891 5.2383 2.1523-0.60547 4.3555-1.0234 6.5781-1.25 2.6016-0.29688 5.2266-0.29688 7.8281 0-0.38281-3.3516-1.1484-6.6445-2.2812-9.8203zm-79.434 116.31m70.027-88.754c-1.7109-0.30859-3.4648-0.4375-5.2617-0.59375l-2.6758-0.10938h-0.52734 0.003906c-1.1484 1.7617-2.3945 3.4609-3.7266 5.0859 0.94531-0.17969 1.9102-0.22266 2.8711-0.12891 1.0508 0.039062 2.0938 0.18359 3.1133 0.4375 1 0.29297 1.9844 0.65234 2.9375 1.0742 1.8984 0.90234 3.625 2.1289 5.1094 3.6172 1.1523 1.1367 2.1367 2.4375 2.9141 3.8594 1.7656-3.3203 3.2344-6.7891 4.3867-10.371-2.875-1.4414-5.9609-2.4102-9.1445-2.8711zm-19.031 21.926c-1.6836-1.0312-3.5273-1.7734-5.457-2.1953-1.0352-0.24609-2.0938-0.37109-3.1562-0.37109l-0.70312 0.57031c-1.5352 1.25-3.1367 2.5-4.8242 3.793 0.45703-0.003906 0.91406 0.046875 1.3594 0.15234 2.2031 0.25781 4.293 1.1211 6.0312 2.5 1.75 1.3477 3.1367 3.1133 4.0312 5.1289 0.74219 1.5664 1.1953 3.2539 1.3398 4.9805 3.4648-2.4766 6.5781-4.8672 9.5391-7.1914h-0.003907c-2.2695-2.9102-5.0312-5.4023-8.1562-7.3672zm-12.586 16.73 0.003906-0.003907c-0.97266-1.5547-2.082-3.0234-3.3125-4.3828-1.1875-1.3008-2.5508-2.4219-4.0547-3.332-0.86328-0.4375-1.7656-0.78125-2.6992-1.0312-1.1406 0.76562-2.3477 1.5117-3.5742 2.1914l-4.5352 2.8516c0.64062 0.070313 1.2734 0.21094 1.8828 0.41406 1.9453 0.69141 3.7148 1.7891 5.1992 3.2227 1.4102 1.4258 2.5938 3.0586 3.5078 4.8477 0.74609 1.4375 1.293 2.9727 1.6211 4.5586 2.8945-1.7969 5.6992-3.5977 8.3984-5.3516-0.78906-1.4219-1.625-2.7148-2.4336-3.9883zm-45.668 21.066c-1.6875-1.0508-3.3555-2.0391-5.0859-2.9609-0.78906-0.44922-1.6094-0.83594-2.457-1.1602-3.6602 2.5781-7.0547 5.5156-10.129 8.7695 0.52344 0.003907 1.043 0.039063 1.5586 0.10938 2.0742 0.28516 4.1055 0.82422 6.0508 1.6016 1.9141 0.77734 3.7656 1.6914 5.5469 2.7383 1.4844 0.85938 2.9023 1.8359 4.2305 2.918 0.042969-0.054688 0.09375-0.10156 0.15625-0.13281 2.9648-2.4141 6.1016-4.6133 9.3828-6.5781-3.3125-1.5781-6.3359-3.4414-9.2539-5.3047zm10.676-6.7109 0.003906 0.003906c-1.5234-1.25-3.1094-2.4141-4.7578-3.4883-0.70312-0.4375-1.4375-0.82422-2.1953-1.1602-3.4219 2.0156-6.7969 4.1016-10.043 6.3789h0.003906c0.65234 0.13281 1.2969 0.30859 1.9297 0.52734 1.9141 0.71875 3.75 1.6289 5.4805 2.7188 1.7227 1.0586 3.3711 2.2383 4.9336 3.5273 1.3008 1.0586 2.5195 2.2188 3.6367 3.4648 1.1836-0.65625 2.3906-1.3359 3.6172-1.9727 2.0156-1.0312 3.9922-2.1914 5.9648-3.1367-3.1133-2.2109-5.875-4.6445-8.6797-6.8594zm-21.637 15.066c-1.8398-0.72266-3.707-1.4023-5.5898-1.9531-0.75781-0.20703-1.5273-0.36719-2.3047-0.48047-2.4922 2.7461-4.7695 5.6758-6.8164 8.7695 0.51562-0.054688 1.0391-0.054688 1.5547 0 1.9375 0.09375 3.8398 0.51562 5.6367 1.25 3.1758 1.3008 6.0742 3.207 8.5273 5.6133 2.7734-3.3516 5.8672-6.4297 9.2305-9.1875-3.5312-1.2305-6.8398-2.6992-10.238-4.0117zm-8.3086 9.4727v-0.003907c-1.625-0.67187-3.3047-1.1953-5.0234-1.5547-0.71875-0.14844-1.457-0.21484-2.1914-0.19922-1.9688 3.1211-3.6914 6.3906-5.1523 9.7812 0.61328-0.066406 1.2305-0.066406 1.8398 0 1.7344 0.15625 3.4453 0.49609 5.1094 1.0078 2.9766 0.90234 5.8164 2.207 8.4414 3.8789 1.7539-3.1406 3.7852-6.1211 6.0742-8.8984-3.1562-1.3594-6.0742-2.7656-9.0781-4.0156zm-12.387 33.348-0.003906-0.003906c-1.4102-0.15234-2.832-0.23438-4.2539-0.23828h-1.25c0 3.8516 0.39844 7.6953 1.1875 11.465 0.28516-0.19531 0.58594-0.37109 0.89844-0.52344 1.2031-0.57031 2.5078-0.89844 3.8359-0.96484 1.2812-0.058594 2.5625 0.054688 3.8164 0.32812 0.86328 0.23438 1.7148 0.52734 2.543 0.875 0.046876-3.5156 0.39453-7.0195 1.0273-10.48-2.6719 0.066406-5.2383-0.23828-7.7812-0.46094zm13.965 34.137c-1.5117 0.61328-2.9609 1.0312-4.3867 1.5586v-0.003907c-0.73438 0.27344-1.4219 0.65625-2.0391 1.1406 2.4766 3.1875 5.1797 6.1953 8.0898 8.9883 0.28516-0.57422 0.67188-1.0938 1.1406-1.5352 0.91016-0.87891 2.0391-1.5 3.2656-1.7969-2.1953-2.6523-4.2148-5.4414-6.0508-8.3516zm122.56-189.72h-0.003907c-3.0742-6-7.1367-11.438-12.016-16.094-2.2227-2.1484-4.6523-4.0742-7.2539-5.7422l-0.19922-0.13281c-1.5234-1.0078-3.1328-1.8867-4.8008-2.6328l-0.21875-0.13281-1.668-0.875h-0.15234c-0.70312-0.26172-1.4453-0.50391-2.1914-0.72266-1.2344-0.38281-2.4961-0.66797-3.7734-0.85547h-0.87891c-0.28516 0-0.57031 0-0.87891-0.13281l-2.6719-0.48047-1.6875-0.17578c-3.5508-0.32812-6.9727-0.54688-10.195-0.63672-3.3867-0.085937-6.7773 0.023438-10.148 0.32813-1.6523 0.15234-3.293 0.40234-4.9141 0.74609h-0.35156l-0.96484 0.24219h-0.24219l-0.61328 0.21875v9.7773c0.72266 0 1.4453 0.17578 2.1914 0.32813l0.003906 0.003906c4.3828 0.72656 8.5781 2.3125 12.344 4.668 2.7617 1.8047 5.2773 3.9648 7.4766 6.4258l0.46094 0.46094c0.15234 0.17578 0.28516 0.30859 0.41797 0.48047h-0.003906c1.3203 1.4375 2.5273 2.9688 3.6172 4.582l0.37109 0.54688c0.46094-0.19922 0.89844-0.39453 1.3164-0.61328h0.003907c0.74219-0.35547 1.4297-0.82031 2.0391-1.3789 1.0508-1.0156 1.9023-2.2188 2.5-3.5547-1.4766-1.3672-3.0352-2.6445-4.6719-3.8125l1.1602-1.7109c0.39453 0.26172 38.5 27.383 15.172 70.469-6.0078 11.094-35.824 32.582-69.371 50.012l0.003906-0.003906c-4.6484 2.3828-9.0547 5.2109-13.156 8.4414-14.957 11.969-23.723 30.047-23.855 49.199-0.042969 1.7656 0.046875 3.5352 0.26562 5.2852 0 0.19922 1.7109 15.59 21.598 33.438h-0.003906c0.5 0.38281 1.0352 0.71484 1.6016 0.98437v-0.21875-1.1406c0.09375-3.4961 0.4375-6.9844 1.0312-10.434 0.26172-1.5352 0.54688-3.0469 0.87891-4.582h-0.003906c-1.0664-0.93359-2-2-2.7852-3.1797-0.28516-0.50391-0.89844-1.6211-1.1406-2.1914l0.003906-0.003907c-1.7305-3.3008-3.125-6.7695-4.168-10.348l-0.28516-1.0078-0.35156-1.4258c-0.007812-0.035156-0.007812-0.074218 0-0.10937v-0.26172c0.011719-0.14844 0.011719-0.29297 0-0.44141v-0.46094 0.003906c-0.089844-0.37891-0.16406-0.75781-0.21875-1.1406-0.085937-0.36328-0.15234-0.73047-0.19531-1.0977v-0.65625c-0.23047-1.7539-0.33984-3.5195-0.33203-5.2852-0.011718-4.2344 0.73047-8.4375 2.1953-12.41 2.332-6.7734 6.6016-12.711 12.277-17.078 5.2422-4.5547 10.875-8.6328 16.84-12.191l3.8164-2.1914c4.625-2.6523 9.4297-5.3711 14.012-8.2656 5.6328-3.5078 11.445-7.3242 17.234-11.355 5.1289-3.5312 10.457-7.3438 16.816-12.035l-0.007813-0.003906c5.5469-3.9688 10.773-8.3672 15.633-13.156 4.7891-4.7695 8.832-10.23 11.996-16.203 3.0898-6.0156 5.3477-12.426 6.707-19.051 2.7852-13.262 0.80469-27.082-5.5898-39.027zm-115.83 198.73c-0.75 0.92188-1.5625 1.7852-2.4336 2.5898-0.46094 0.4375-0.87891 0.87891-1.2734 1.3164 2.7227 2.5195 5.5742 4.8906 8.5508 7.1016-0.054688-0.39844-0.054688-0.80469 0-1.207 0.011718-0.15234 0.011718-0.30469 0-0.45703 0.21094-0.78906 0.55859-1.5312 1.0312-2.1953 0.12891-0.17578 0.27734-0.33594 0.4375-0.48047-2.2578-2.2383-4.4062-4.4961-6.3125-6.668zm9.668 9.6016c-0.24219-0.21875-0.50391-0.35156-0.74609-0.57031l-1.4688-1.3164c-0.15234 0.74609-0.32812 1.4258-0.50391 2.1914-0.17578 0.76562-0.17578 0.78906-0.26172 1.207l-0.13281 0.61328v0.52734l0.39453 0.28516c0.59375 0.41797 1.1836 0.85547 1.7969 1.25v0.003906c0.15234 0.12109 0.3125 0.23047 0.48438 0.32812 0.19922 0.15234 1.6875 0.96484 1.8867 1.0977v-4.6914zm-23.328-35.648c-0.20312-1.8047-0.29297-3.6211-0.26172-5.4375h-2.6953c-0.87891 0-2.3906 0-3.5312 0.13281-1.1445 0.042968-2.2773 0.17578-3.3984 0.39453l-1.1836 0.30859c0.72656 3.2852 1.7539 6.5 3.0664 9.6016 0.98828-0.69141 2.1211-1.1484 3.3125-1.3359 1.1484-0.14062 2.3125-0.14062 3.4648 0 0.73828 0.074218 1.4727 0.21484 2.1914 0.41406-0.4375-1.3281-0.75781-2.6914-0.96484-4.0781zm1.1172 4.8242c-1.8867 0.4375-3.6836 0.63672-5.4609 0.96484h0.003907c-0.98047 0.125-1.9453 0.36328-2.875 0.70312h-0.13281 0.003906c0.75391 1.6914 1.5977 3.3477 2.5195 4.9531 1.3164 2.3789 2.7812 4.668 4.3867 6.8633 0.56641-0.74609 1.3242-1.332 2.1914-1.6875 0.97656-0.35938 2.0078-0.55078 3.0469-0.57031 0.50391-0.03125 1.0117-0.03125 1.5117 0-2.168-3.5234-3.9102-7.293-5.1953-11.227zm-5.8984-33.348c-1.5-0.26172-3.0156-0.43359-4.5352-0.50391-0.66797-0.019532-1.3359 0.019531-1.9961 0.10937-0.15234 0.67969-0.26172 1.3359-0.37109 1.9961h-0.003907c-0.47656 2.7461-0.74609 5.5234-0.80859 8.3086 0.33594-0.14062 0.69141-0.24609 1.0508-0.30469 1.5156-0.30078 3.0664-0.37891 4.6055-0.24219 1.4844 0.16016 2.9531 0.45312 4.3828 0.875 1.1289 0.3125 2.2227 0.73438 3.2695 1.25 0.64844-3.4375 1.5586-6.8242 2.7188-10.129-2.8281-0.37109-5.5703-0.94141-8.3125-1.3594zm4.0781-10.961c-1.6016-0.50391-3.1797-0.96484-4.7812-1.4023-0.67969-0.17578-1.3828-0.35156-2.0625-0.46094h0.003906c-1.5117 3.5352-2.6836 7.2031-3.5078 10.961 0.51953-0.19141 1.0547-0.32812 1.6016-0.41797 1.6562-0.23828 3.3398-0.23828 5 0 2.8906 0.46094 5.668 1.4727 8.1758 2.9844 1.2109-3.3047 2.6797-6.5078 4.3867-9.582-2.9727-0.51563-5.9141-1.1875-8.8164-2.0156zm47.051-42.602c-2.0078-1.8633-4.4609-3.1836-7.125-3.8359l-4.2109 2.3672-5.3711 3.0898h0.003906c0.53125 0.15234 1.0508 0.34375 1.5547 0.57031 1.8984 0.87109 3.6719 1.9844 5.2852 3.3125 1.5742 1.2891 3.0391 2.7031 4.3828 4.2305 1.1562 1.2617 2.2109 2.6094 3.1602 4.0352 3.4648-1.8867 6.8828-3.793 10.195-5.7227h-0.003907c-2.4375-2.8555-5.0664-5.5469-7.8711-8.0469zm11.402-5.9648c-1.3086-1.25-2.7852-2.3203-4.3828-3.1758-0.86719-0.45703-1.7812-0.82422-2.7188-1.0977-2.6328 1.4922-5.2383 2.9609-7.8281 4.3867l-1.7539 0.98828v-0.003906c0.28125 0.03125 0.55859 0.082032 0.83203 0.15234 2.1289 0.59766 4.0938 1.668 5.7461 3.1367 1.6523 1.3984 3.125 2.9961 4.3828 4.7578 1.0234 1.4531 1.8906 3.0117 2.5898 4.6484 3.2227-1.8633 6.3789-3.75 9.4062-5.6133h-0.003907c-1.7773-2.9453-3.8789-5.6797-6.2695-8.1562zm17.125-11.883c-2.2422-1.6641-4.8672-2.7344-7.6328-3.1133l-1.8867 1.4023c-1.207 0.92188-2.4766 1.8203-3.793 2.6953l0.003907 0.003907c0.67969 0.074219 1.3477 0.23047 1.9961 0.46094 1.875 0.75781 3.5625 1.9258 4.9297 3.418 2.3516 2.6562 3.9375 5.8984 4.582 9.3867 2.8047-1.8398 5.4805-3.6758 8.0234-5.5039h0.003906c-1.2852-3.3984-3.4336-6.4062-6.2266-8.7266zm20.918-9.4922h-0.003906c-1.4922-1.2578-3.1445-2.3203-4.9102-3.1562-0.875-0.43359-1.7852-0.79297-2.7188-1.0742-0.48047-0.15234-0.92188-0.32812-1.4023-0.46094l-1.4453-0.35156c-0.96484-0.26172-1.9727-0.32812-2.9805-0.54688h-0.65625c-1.8203 1.7539-3.793 3.5078-5.9648 5.3281h-0.003907c0.64063-0.078125 1.2891-0.078125 1.9297 0 2.207 0.14453 4.3477 0.81641 6.25 1.9492 3.4258 2.0703 6.0508 5.2383 7.4531 8.9883 3.0469-2.4336 5.7227-4.7812 7.9805-6.9727-1.0547-1.3398-2.2344-2.5703-3.5312-3.6797zm1.9297-10.961-0.003907-0.003906c-1.7109-0.82812-3.5234-1.4258-5.3906-1.7734-1.1445-0.24609-2.3008-0.39844-3.4648-0.46094-0.050781 0.09375-0.10937 0.17969-0.17578 0.26172-1.8398 2.1914-3.8359 4.2305-6.0508 6.3594 0.96094-0.066406 1.9297-0.066406 2.8945 0 2.1562 0.16016 4.2656 0.70703 6.2266 1.6211 1.9766 0.89844 3.7539 2.1875 5.2148 3.793 1.1836 1.2734 2.1094 2.7617 2.7188 4.3867 2.5664-2.3359 4.7852-5.0312 6.5781-8.0039 0.027344-0.074219 0.066407-0.14844 0.10938-0.21875-2.5664-2.4219-5.4844-4.4414-8.6602-5.9844zm7.0391-15.566c-1.5586-0.19922-3.1133-0.26172-4.6914-0.35156h-2.7188-0.003906c-0.85156 2.3008-1.9492 4.5039-3.2656 6.5742 0.83203-0.17969 1.6719-0.32031 2.5195-0.41406 1.875-0.19922 3.7695-0.15234 5.6367 0.12891 1.8828 0.30078 3.7109 0.89062 5.4141 1.7578 1.3398 0.65625 2.5508 1.5469 3.5742 2.6289 0.95312-2.9961 1.6406-6.0703 2.0586-9.1875-2.9375-0.41406-5.6992-0.875-8.5273-1.1602zm8.7695-9.4297h-0.003906c-2.4727 0.83984-5.0312 1.3984-7.6289 1.6641-2.2344 0.27734-4.4844 0.35938-6.7305 0.24219-0.089844 0.79688-0.23047 1.5898-0.41797 2.3672-0.21875 1.2695-0.53906 2.5156-0.96484 3.7305 0.71875-0.22266 1.4531-0.39062 2.1914-0.50781 1.6523-0.21875 3.3281-0.21875 4.9805 0 1.6484 0.16406 3.2734 0.51953 4.8438 1.0547 1.2344 0.40625 2.418 0.94922 3.5312 1.6211 0.41797-3.3828 0.46875-6.8008 0.15234-10.195zm-16.312-31.965-0.003906-0.003906c-0.007813 0.51172-0.082031 1.0195-0.21875 1.5156-0.54688 2.2148-2.3711 3.8828-4.625 4.2305-0.37109 0.035157-0.74609 0.035157-1.1172 0 1.2031 1.8672 2.2734 3.8164 3.1992 5.832l1.7109-0.63672c0.93359-0.37109 1.8281-0.83203 2.6758-1.3789 0.80078-0.53516 1.5352-1.1602 2.1914-1.8633 0.55469-0.53906 1.0664-1.1172 1.5352-1.7344-1.668-2.1094-3.4727-4.1055-5.3945-5.9844z"/>
  <path d="m355.94 505.07c-0.43359 0.82422-0.64062 1.7461-0.59375 2.6758 0.070313 0.88672 0.33203 1.7461 0.76953 2.5195l0.30859 0.50391-1.0977-0.24219c-0.72266-0.17578-1.4688-0.32812-2.1914-0.54688-0.72266-0.21875-0.94141-0.24219-1.4023-0.39453s-1.3359-0.35156-2.0156-0.57031l-0.85547-0.26172v-0.41797h-0.003906c0.007813-0.11719 0.007813-0.23438 0-0.35156v-0.15234c0.011719-0.050782 0.011719-0.10156 0-0.15234v-0.13281c-0.10938-1.707-0.10938-3.4219 0-5.1289l1.0078 0.30859v-0.003907c2.3164 0.60547 4.668 1.082 7.0391 1.4258-0.39062 0.22656-0.72266 0.54297-0.96484 0.92188z"/>
  <path d="m367.23 506.61c-0.17188 0.84375-0.24609 1.7031-0.21875 2.5664 0.027343 0.90625 0.22656 1.7969 0.59375 2.6289 0.050781 0.13672 0.11719 0.26953 0.19531 0.39453h-1.3359c-1.2734 0-2.5195-0.19922-3.793-0.35156l-1.7539-0.24219h-0.37109c-0.57031 0-1.1172-0.15234-1.668-0.26172l-1.0312-0.15234c-0.13281-1.2734-0.32812-2.3672-0.37109-3.4219-0.058593-0.66797-0.058593-1.3438 0-2.0156 0.074219-0.45312 0.18359-0.90234 0.32813-1.3359 3.3281 0.44531 6.6836 0.66406 10.039 0.65625-0.24609 0.49219-0.45312 1.0078-0.61328 1.5352z"/>
  <path d="m378.48 505.97c-0.23438 0.90234-0.32422 1.8359-0.26562 2.7617 0.019531 1.0195 0.3125 2.0117 0.85547 2.875h-0.30859l-2.7617 0.32812c-2.1914 0.17578-4.5156 0.26172-6.7539 0.21875v-0.85547-2.3008h0.003906c-0.046875-1.4062-0.23828-2.8008-0.57031-4.168h4.2109c2.1914-0.13281 4.3867-0.35156 6.5781-0.65625h-0.003906c-0.41016 0.55078-0.74219 1.1562-0.98438 1.7969z"/>
  <path d="m390.19 508.58c0.11328 0.17969 0.25391 0.34375 0.41406 0.48438l-1.9531 0.59375-1.9727 0.54688c-1.9531 0.48047-3.9258 0.89844-5.918 1.2266-0.089843-0.17969-0.15625-0.37109-0.19531-0.57031-0.14453-0.72266-0.23438-1.457-0.26562-2.1953-0.027344-1.5273-0.17969-3.0547-0.45703-4.5586 3.4688-0.47656 6.8984-1.2109 10.258-2.1914-0.25781 0.53516-0.44141 1.1016-0.54688 1.6875-0.18359 0.83594-0.23438 1.6914-0.15234 2.543 0.078124 0.85937 0.34766 1.6914 0.78906 2.4336z"/>
  <path d="m401.94 503.82 0.35156 0.28516-0.41797 0.21875-2.1914 1.1602h-0.19922c-0.74609 0.35156-1.4688 0.70312-2.1914 1.0078l-0.26172 0.13281c-0.59766 0.26172-1.1914 0.50391-1.7773 0.72266l-2.1914 0.87891-0.94141 0.30859c-0.10547-0.23828-0.17578-0.48828-0.21875-0.74609-0.15234-0.72266-0.24219-1.457-0.26563-2.1914-0.12891-1.418-0.38672-2.8203-0.76562-4.1875 2.1914-0.63672 4.1641-1.3594 6.1836-2.1914 1.3359-0.52734 2.6523-1.0977 3.9258-1.6875l-0.003906-0.003906c-0.38281 1.2812-0.38281 2.6445 0 3.9258 0.10547 0.85938 0.4375 1.6797 0.96484 2.3672z"/>
  <path d="m401.26 497.46c2.9688-1.4102 5.8398-3.0117 8.5977-4.8008-0.12109 0.47266-0.16406 0.96094-0.13281 1.4492 0.039063 0.66016 0.20703 1.3086 0.50391 1.9062 0.32031 0.64062 0.81641 1.1797 1.4258 1.5547 0.10938 0.09375 0.23438 0.16797 0.37109 0.22266l-0.50391 0.39453c-0.50391 0.39453-1.0312 0.76562-1.5352 1.1172-1.0508 0.74609-2.1914 1.4688-3.1797 2.1914-0.98828 0.72266-2.1914 1.3594-3.3125 1.9727h0.003906c-0.125-0.17188-0.22266-0.36328-0.28516-0.57031-0.19922-0.52734-0.37109-1.1406-0.57031-1.7539-0.3125-1.2773-0.77344-2.5156-1.3828-3.6836z"/>
  <path d="m425.64 482.25c0.32812 0.25781 0.72266 0.42578 1.1406 0.48438-0.92188 1.2734-1.8867 2.5-2.8945 3.707l-1.0742 1.25v-0.003906c-0.24609 0.32812-0.51953 0.63672-0.8125 0.92188-0.070312-0.097656-0.14844-0.1875-0.24219-0.26562-0.25-0.25781-0.52344-0.5-0.80859-0.72266-0.67578-0.50391-1.4141-0.91406-2.1953-1.2266-0.36328 1.0547 0.023438 2.2188 0.94531 2.8516 0.36328 0.26562 0.78125 0.44531 1.2266 0.52344-0.26953 0.31641-0.55469 0.61719-0.85547 0.89844-1.2266 1.2734-2.5 2.5-3.8359 3.6602-0.57031 0.52734-1.1406 1.0312-1.7305 1.5117l-1.4023 1.1406-0.003906 0.003906c-0.13281-0.17188-0.25-0.35547-0.35156-0.54688-0.24219-0.4375-0.46094-0.87891-0.70312-1.3594h0.003906c-0.47656-0.96484-1.0664-1.8711-1.7539-2.6992 2.6484-1.7383 5.1953-3.6289 7.6289-5.6562 2.4414-2.0703 4.7773-4.2656 6.9961-6.5781-0.046875 0.1875-0.046875 0.38281 0 0.57031 0.023437 0.58984 0.28516 1.1406 0.72266 1.5352z"/>
  <path d="m433.18 470.48c-0.074219 0.34375-0.16797 0.67969-0.28516 1.0078-0.13281 0.54297-0.30078 1.0781-0.50391 1.6016-0.15625 0.44531-0.33203 0.88672-0.52734 1.3164-0.29297 0.70312-0.63672 1.3867-1.0312 2.0391-0.39453 0.63672-0.76563 1.293-1.1836 1.9531-0.41797 0.65625-1.2266 1.9531-1.9062 2.8945v-0.003906c-0.054688-0.0625-0.11328-0.12109-0.17578-0.17578-0.24219-0.26172-0.46094-0.39453-0.61328-0.57031l-0.57031-0.37109c-0.27734-0.23828-0.52734-0.50391-0.74609-0.78906 2.0391-2.1914 3.9688-4.3867 5.8086-6.5781 0.37109-0.4375 0.72266-0.87891 1.0312-1.293l0.74609-0.96484z"/>
  <path d="m346.54 506.7v-0.13281-4.2305-0.13281 0.003906c0.007813-0.042969 0.007813-0.089844 0-0.13281 0-0.98828 0.15234-2.0156 0.28516-3.0703 0-0.37109 0-0.74609 0.13281-1.0977 0.13281-0.35156 0-0.37109 0-0.54688l0.26172-1.7539c0.30859-2.2305 0.8125-4.4336 1.5117-6.5781 1.1875-5.3594 2.832-10.613 4.9102-15.695 1.0312-2.1914 1.9961-4.3867 2.8945-6.7734v-0.003907c1.3164-3.2656 3.0859-6.3281 5.2617-9.0977 4.0664-4.8828 8.418-9.5234 13.023-13.902 2.6328-2.3594 5.5859-4.3398 8.7695-5.875 1.3281-0.82422 2.832-1.3281 4.3867-1.4688 0.39844-0.11328 0.80078-0.21094 1.207-0.28516l1.1406-0.17578c3.0625-0.41016 6.1758-0.25391 9.1836 0.46094 3.0156 0.64453 5.9102 1.7617 8.5742 3.3125 1.4492 0.76172 2.75 1.7773 3.8359 3.0039 1 1.3086 1.7422 2.7969 2.1914 4.3828 0.6875 2.4062 0.96094 4.9141 0.8125 7.4102 0.019531 0.375 0.019531 0.74609 0 1.1211 0.023437 0.26953 0.023437 0.53906 0 0.80859v0.70312c0 0.65625-0.21875 1.293-0.35156 1.9297-0.23438 1.1211-0.54297 2.2266-0.91797 3.3086-0.32031 0.95312-0.6875 1.8906-1.0977 2.8086-2.5625 5.5469-6.4961 10.352-11.422 13.965l-0.30859 0.24219c-2.75 2.3008-5.6836 4.375-8.7695 6.2031-0.26172 0.15234-0.57031 0.37109-0.92188 0.54688l-0.98828 0.57031-0.8125 0.4375-1.6875 0.74609-0.46094 0.19922h0.003906c-2.3359 0.93359-4.7695 1.5977-7.2578 1.9727h-1.1602c-3.0664 0.32422-6.1523 0.44141-9.2305 0.35156h-1.0977c-2.4297-0.21094-4.8281-0.65625-7.168-1.3359h-0.30859l-1.4453-0.54688-4.0117-1.5352-2.8516-1.0312c0 0.19922-0.65625 2.3242-0.76562 2.7188h-0.003907c-0.95312 3.5391-1.6836 7.1328-2.1914 10.766l-0.19922 1.668v-0.003906c7.6992 2.1367 15.676 3.0898 23.66 2.8281 8.1523-0.30859 16.199-1.9375 23.832-4.8242 7.6445-3.2734 14.738-7.7109 21.027-13.152 4.9688-4.0234 9.457-8.6055 13.371-13.66 0.13281-0.15234 0.46094-0.76562 0.85547-1.2266 0.39453-0.46094 2.1914-3.3555 2.1914-3.4414s0.30859 0 0-6.0742h0.003906c-0.10938-2.207-0.34375-4.4023-0.70312-6.5781 0-0.15234-0.57031-3.6602-0.78906-4.7812-0.25391-1.0625-0.57812-2.1094-0.96484-3.1328l-0.52734-1.7539c-0.10938-0.41797-0.24219-0.83203-0.37109-1.25-0.13281-0.41797-0.4375-1.3828-0.70312-2.0391-0.26172-0.65625-0.48047-1.2734-0.74609-1.9062v-0.15234c0-0.13281 0-0.30859-0.15234-0.4375v-0.003906c-0.082031-0.16406-0.15625-0.33203-0.21875-0.50391l-0.19922-0.41797c-0.30859-0.67969-0.61328-1.3359-0.94141-1.9727l-0.17578-0.37109-0.32812-0.59375-0.61328-1.0977c-0.52734-0.92188-1.0742-1.7969-1.668-2.6523-0.46094-0.67969-0.96484-1.3594-1.4453-1.9961-0.09375-0.09375-0.18359-0.19922-0.26562-0.30469h-0.10938l-0.15234-0.19922-0.24219-0.32812c-0.15234-0.17578-0.30859-0.32812-0.4375-0.50391l-0.35156-0.41797-0.39453-0.4375c-0.17188-0.19922-0.35547-0.39062-0.54688-0.57031-0.21875-0.24219-0.46094-0.50391-0.70312-0.72266-0.82422-0.83984-1.7031-1.625-2.6289-2.3477-0.074219-0.089844-0.16406-0.16406-0.26563-0.21875l-0.19922-0.15234-0.46094-0.37109-0.67969-0.48047-1.5586-1.0312-1.2734-0.76562-0.54688-0.30859c-0.57031-0.28516-1.1406-0.59375-1.7305-0.83203l-0.24219-0.10938 0.003906-0.003907c-0.0625-0.058593-0.13672-0.10156-0.21875-0.13281-0.48047-0.19922-0.92187-0.39453-1.4023-0.54688-0.46094-0.19922-0.94141-0.35156-1.4023-0.50391l-0.65625-0.17578-0.83203-0.24219h-0.003906c-2.0078-0.55859-4.0625-0.94141-6.1367-1.1406h-0.63672c-0.19531-0.019531-0.39453-0.019531-0.59375 0-6.6484-0.30469-13.297 0.62891-19.602 2.7617-0.78906 0.24219-1.6016 0.52734-2.3672 0.78906v0.003906c-2.2422 0.77734-4.4375 1.6836-6.5781 2.7188-0.30859 0.10938-0.54688 0.24219-0.78906 0.35156l-1.2266 0.61328c-1.3164 0.65625-2.5 1.3164-3.6406 1.9961l-1.4453 0.89844-1.8203 1.207c-0.67969 0.50391-1.3359 0.96484-1.9961 1.4922l-0.30859 0.19922-1.6445 1.3828c-0.57031 0.4375-1.0742 0.89844-1.6016 1.3594l0.003906-0.007812c-2.2852 1.5586-4.4609 3.2734-6.5117 5.1289-0.54688 0.63672-1.0742 1.2734-1.6016 1.9297s-1.0312 1.3164-1.5352 1.9961c-0.50391 0.67969-0.87891 1.1602-1.293 1.7539l-0.50391 0.72266c-0.74609 1.1172-1.5586 2.3672-2.5 3.9023-0.4375 0.74609-0.85547 1.4922-1.25 2.1914-0.59375 1.1172-1.1602 2.1914-1.6445 3.1367-0.48047 0.94141-0.92188 1.9297-1.3594 2.8711-0.4375 0.94141-0.78906 1.8398-1.1836 2.7852-1.5039 3.6875-2.7734 7.4648-3.793 11.316-0.32812 1.2734-0.63672 2.5859-0.92188 3.8594-0.28516 1.2734-0.57031 2.8711-0.8125 4.3867l0.003906-0.003907c-0.58984 3.3008-0.93359 6.6445-1.0312 9.9961v1.7969c-0.10938 2.5859-0.13281 4.7148-0.10938 6.7109v0.26172c0 0.74609 0.15234 1.6875 0.15234 1.6875v0.003906c0.39844 3.1094 1.043 6.1797 1.9297 9.1836"/>
  <path d="m285.45 254.14c-0.57031 0.65625-0.57031 1.6016 0 1.8398v0.003906c0.27344 0.15234 0.60547 0.15234 0.87891 0 0.15234 0 0.19922-0.15234 0.24219-0.28516 0.011719-0.21094 0.011719-0.42578 0-0.63672-0.085937-1.0703 0.26172-2.125 0.96484-2.9375-0.73047 0.63281-1.4258 1.3086-2.0859 2.0156zm0 0c-0.57031 0.65625-0.57031 1.6016 0 1.8398v0.003906c0.27344 0.15234 0.60547 0.15234 0.87891 0 0.15234 0 0.19922-0.15234 0.24219-0.28516 0.011719-0.21094 0.011719-0.42578 0-0.63672-0.085937-1.0703 0.26172-2.125 0.96484-2.9375-0.73047 0.63281-1.4258 1.3086-2.0859 2.0156zm0 0c-0.57031 0.65625-0.57031 1.6016 0 1.8398v0.003906c0.27344 0.15234 0.60547 0.15234 0.87891 0 0.15234 0 0.19922-0.15234 0.24219-0.28516 0.011719-0.21094 0.011719-0.42578 0-0.63672-0.085937-1.0703 0.26172-2.125 0.96484-2.9375-0.73047 0.63281-1.4258 1.3086-2.0859 2.0156zm0 0c-0.57031 0.65625-0.57031 1.6016 0 1.8398v0.003906c0.27344 0.15234 0.60547 0.15234 0.87891 0 0.15234 0 0.19922-0.15234 0.24219-0.28516 0.011719-0.21094 0.011719-0.42578 0-0.63672-0.085937-1.0703 0.26172-2.125 0.96484-2.9375-0.73047 0.63281-1.4258 1.3086-2.0859 2.0156zm0 0c-0.57031 0.65625-0.57031 1.6016 0 1.8398v0.003906c0.27344 0.15234 0.60547 0.15234 0.87891 0 0.15234 0 0.19922-0.15234 0.24219-0.28516 0.011719-0.21094 0.011719-0.42578 0-0.63672-0.085937-1.0703 0.26172-2.125 0.96484-2.9375-0.73047 0.63281-1.4258 1.3086-2.0859 2.0156zm0 0c-0.57031 0.65625-0.57031 1.6016 0 1.8398v0.003906c0.27344 0.15234 0.60547 0.15234 0.87891 0 0.15234 0 0.19922-0.15234 0.24219-0.28516 0.011719-0.21094 0.011719-0.42578 0-0.63672-0.085937-1.0703 0.26172-2.125 0.96484-2.9375-0.73047 0.63281-1.4258 1.3086-2.0859 2.0156zm0 0c-0.57031 0.65625-0.57031 1.6016 0 1.8398v0.003906c0.27344 0.15234 0.60547 0.15234 0.87891 0 0.15234 0 0.19922-0.15234 0.24219-0.28516 0.011719-0.21094 0.011719-0.42578 0-0.63672-0.085937-1.0703 0.26172-2.125 0.96484-2.9375-0.73047 0.63281-1.4258 1.3086-2.0859 2.0156zm0 0c-0.57031 0.65625-0.57031 1.6016 0 1.8398v0.003906c0.27344 0.15234 0.60547 0.15234 0.87891 0 0.15234 0 0.19922-0.15234 0.24219-0.28516 0.011719-0.21094 0.011719-0.42578 0-0.63672-0.085937-1.0703 0.26172-2.125 0.96484-2.9375-0.73047 0.63281-1.4258 1.3086-2.0859 2.0156zm0 0c-0.57031 0.65625-0.57031 1.6016 0 1.8398v0.003906c0.27344 0.15234 0.60547 0.15234 0.87891 0 0.15234 0 0.19922-0.15234 0.24219-0.28516 0.011719-0.21094 0.011719-0.42578 0-0.63672-0.085937-1.0703 0.26172-2.125 0.96484-2.9375-0.73047 0.63281-1.4258 1.3086-2.0859 2.0156zm0 0c-0.57031 0.65625-0.57031 1.6016 0 1.8398v0.003906c0.27344 0.15234 0.60547 0.15234 0.87891 0 0.15234 0 0.19922-0.15234 0.24219-0.28516 0.011719-0.21094 0.011719-0.42578 0-0.63672-0.085937-1.0703 0.26172-2.125 0.96484-2.9375-0.73047 0.63281-1.4258 1.3086-2.0859 2.0156zm0 0c-0.57031 0.65625-0.57031 1.6016 0 1.8398v0.003906c0.27344 0.15234 0.60547 0.15234 0.87891 0 0.15234 0 0.19922-0.15234 0.24219-0.28516 0.011719-0.21094 0.011719-0.42578 0-0.63672-0.085937-1.0703 0.26172-2.125 0.96484-2.9375-0.73047 0.63281-1.4258 1.3086-2.0859 2.0156zm0 0c-0.57031 0.65625-0.57031 1.6016 0 1.8398v0.003906c0.27344 0.15234 0.60547 0.15234 0.87891 0 0.15234 0 0.19922-0.15234 0.24219-0.28516 0.011719-0.21094 0.011719-0.42578 0-0.63672-0.085937-1.0703 0.26172-2.125 0.96484-2.9375-0.73047 0.63281-1.4258 1.3086-2.0859 2.0156zm0 0c-0.57031 0.65625-0.57031 1.6016 0 1.8398v0.003906c0.27344 0.15234 0.60547 0.15234 0.87891 0 0.15234 0 0.19922-0.15234 0.24219-0.28516 0.011719-0.21094 0.011719-0.42578 0-0.63672-0.085937-1.0703 0.26172-2.125 0.96484-2.9375-0.73047 0.63281-1.4258 1.3086-2.0859 2.0156zm0 0c-0.57031 0.65625-0.57031 1.6016 0 1.8398v0.003906c0.27344 0.15234 0.60547 0.15234 0.87891 0 0.15234 0 0.19922-0.15234 0.24219-0.28516 0.011719-0.21094 0.011719-0.42578 0-0.63672-0.085937-1.0703 0.26172-2.125 0.96484-2.9375-0.73047 0.63281-1.4258 1.3086-2.0859 2.0156zm0 0c-0.57031 0.65625-0.57031 1.6016 0 1.8398v0.003906c0.27344 0.15234 0.60547 0.15234 0.87891 0 0.15234 0 0.19922-0.15234 0.24219-0.28516 0.011719-0.21094 0.011719-0.42578 0-0.63672-0.085937-1.0703 0.26172-2.125 0.96484-2.9375-0.73047 0.63281-1.4258 1.3086-2.0859 2.0156zm0 0c-0.57031 0.65625-0.57031 1.6016 0 1.8398v0.003906c0.27344 0.15234 0.60547 0.15234 0.87891 0 0.15234 0 0.19922-0.15234 0.24219-0.28516 0.011719-0.21094 0.011719-0.42578 0-0.63672-0.085937-1.0703 0.26172-2.125 0.96484-2.9375-0.73047 0.63281-1.4258 1.3086-2.0859 2.0156zm0 0c-0.57031 0.65625-0.57031 1.6016 0 1.8398v0.003906c0.27344 0.15234 0.60547 0.15234 0.87891 0 0.15234 0 0.19922-0.15234 0.24219-0.28516 0.011719-0.21094 0.011719-0.42578 0-0.63672-0.085937-1.0703 0.26172-2.125 0.96484-2.9375-0.73047 0.63281-1.4258 1.3086-2.0859 2.0156zm0 0c-0.57031 0.65625-0.57031 1.6016 0 1.8398v0.003906c0.27344 0.15234 0.60547 0.15234 0.87891 0 0.15234 0 0.19922-0.15234 0.24219-0.28516 0.011719-0.21094 0.011719-0.42578 0-0.63672-0.085937-1.0703 0.26172-2.125 0.96484-2.9375-0.73047 0.63281-1.4258 1.3086-2.0859 2.0156zm0 0c-0.57031 0.65625-0.57031 1.6016 0 1.8398v0.003906c0.27344 0.15234 0.60547 0.15234 0.87891 0 0.15234 0 0.19922-0.15234 0.24219-0.28516 0.011719-0.21094 0.011719-0.42578 0-0.63672-0.085937-1.0703 0.26172-2.125 0.96484-2.9375-0.73047 0.63281-1.4258 1.3086-2.0859 2.0156zm0 0c-0.57031 0.65625-0.57031 1.6016 0 1.8398v0.003906c0.27344 0.15234 0.60547 0.15234 0.87891 0 0.15234 0 0.19922-0.15234 0.24219-0.28516 0.011719-0.21094 0.011719-0.42578 0-0.63672-0.085937-1.0703 0.26172-2.125 0.96484-2.9375-0.73047 0.63281-1.4258 1.3086-2.0859 2.0156zm0 0c-0.57031 0.65625-0.57031 1.6016 0 1.8398v0.003906c0.27344 0.15234 0.60547 0.15234 0.87891 0 0.15234 0 0.19922-0.15234 0.24219-0.28516 0.011719-0.21094 0.011719-0.42578 0-0.63672-0.085937-1.0703 0.26172-2.125 0.96484-2.9375-0.73047 0.63281-1.4258 1.3086-2.0859 2.0156zm0 0c-0.57031 0.65625-0.57031 1.6016 0 1.8398v0.003906c0.27344 0.15234 0.60547 0.15234 0.87891 0 0.15234 0 0.19922-0.15234 0.24219-0.28516 0.011719-0.21094 0.011719-0.42578 0-0.63672-0.085937-1.0703 0.26172-2.125 0.96484-2.9375-0.73047 0.63281-1.4258 1.3086-2.0859 2.0156zm0 0c-0.57031 0.65625-0.57031 1.6016 0 1.8398v0.003906c0.27344 0.15234 0.60547 0.15234 0.87891 0 0.15234 0 0.19922-0.15234 0.24219-0.28516 0.011719-0.21094 0.011719-0.42578 0-0.63672-0.085937-1.0703 0.26172-2.125 0.96484-2.9375-0.73047 0.63281-1.4258 1.3086-2.0859 2.0156zm0 0c-0.57031 0.65625-0.57031 1.6016 0 1.8398v0.003906c0.27344 0.15234 0.60547 0.15234 0.87891 0 0.15234 0 0.19922-0.15234 0.24219-0.28516 0.011719-0.21094 0.011719-0.42578 0-0.63672-0.085937-1.0703 0.26172-2.125 0.96484-2.9375-0.73047 0.63281-1.4258 1.3086-2.0859 2.0156zm0 0c-0.57031 0.65625-0.57031 1.6016 0 1.8398v0.003906c0.27344 0.15234 0.60547 0.15234 0.87891 0 0.15234 0 0.19922-0.15234 0.24219-0.28516 0.011719-0.21094 0.011719-0.42578 0-0.63672-0.085937-1.0703 0.26172-2.125 0.96484-2.9375-0.73047 0.63281-1.4258 1.3086-2.0859 2.0156zm0 0c-0.57031 0.65625-0.57031 1.6016 0 1.8398v0.003906c0.27344 0.15234 0.60547 0.15234 0.87891 0 0.15234 0 0.19922-0.15234 0.24219-0.28516 0.011719-0.21094 0.011719-0.42578 0-0.63672-0.085937-1.0703 0.26172-2.125 0.96484-2.9375-0.73047 0.63281-1.4258 1.3086-2.0859 2.0156zm0 0c-0.57031 0.65625-0.57031 1.6016 0 1.8398v0.003906c0.27344 0.15234 0.60547 0.15234 0.87891 0 0.15234 0 0.19922-0.15234 0.24219-0.28516 0.011719-0.21094 0.011719-0.42578 0-0.63672-0.085937-1.0703 0.26172-2.125 0.96484-2.9375-0.73047 0.63281-1.4258 1.3086-2.0859 2.0156zm0 0c-0.57031 0.65625-0.57031 1.6016 0 1.8398v0.003906c0.27344 0.15234 0.60547 0.15234 0.87891 0 0.15234 0 0.19922-0.15234 0.24219-0.28516 0.011719-0.21094 0.011719-0.42578 0-0.63672-0.085937-1.0703 0.26172-2.125 0.96484-2.9375-0.73047 0.63281-1.4258 1.3086-2.0859 2.0156zm0 0c-0.57031 0.65625-0.57031 1.6016 0 1.8398v0.003906c0.27344 0.15234 0.60547 0.15234 0.87891 0 0.15234 0 0.19922-0.15234 0.24219-0.28516 0.011719-0.21094 0.011719-0.42578 0-0.63672-0.085937-1.0703 0.26172-2.125 0.96484-2.9375-0.73047 0.63281-1.4258 1.3086-2.0859 2.0156zm0 0c-0.57031 0.65625-0.57031 1.6016 0 1.8398v0.003906c0.27344 0.15234 0.60547 0.15234 0.87891 0 0.15234 0 0.19922-0.15234 0.24219-0.28516 0.011719-0.21094 0.011719-0.42578 0-0.63672-0.085937-1.0703 0.26172-2.125 0.96484-2.9375-0.73047 0.63281-1.4258 1.3086-2.0859 2.0156zm0 0c-0.57031 0.65625-0.57031 1.6016 0 1.8398v0.003906c0.27344 0.15234 0.60547 0.15234 0.87891 0 0.15234 0 0.19922-0.15234 0.24219-0.28516 0.011719-0.21094 0.011719-0.42578 0-0.63672-0.085937-1.0703 0.26172-2.125 0.96484-2.9375-0.73047 0.63281-1.4258 1.3086-2.0859 2.0156zm0 0c-0.57031 0.65625-0.57031 1.6016 0 1.8398v0.003906c0.27344 0.15234 0.60547 0.15234 0.87891 0 0.15234 0 0.19922-0.15234 0.24219-0.28516 0.011719-0.21094 0.011719-0.42578 0-0.63672-0.085937-1.0703 0.26172-2.125 0.96484-2.9375-0.73047 0.63281-1.4258 1.3086-2.0859 2.0156zm0 0c-0.57031 0.65625-0.57031 1.6016 0 1.8398v0.003906c0.27344 0.15234 0.60547 0.15234 0.87891 0 0.15234 0 0.19922-0.15234 0.24219-0.28516 0.011719-0.21094 0.011719-0.42578 0-0.63672-0.085937-1.0703 0.26172-2.125 0.96484-2.9375-0.73047 0.63281-1.4258 1.3086-2.0859 2.0156zm0 0c-0.57031 0.65625-0.57031 1.6016 0 1.8398v0.003906c0.27344 0.15234 0.60547 0.15234 0.87891 0 0.15234 0 0.19922-0.15234 0.24219-0.28516 0.011719-0.21094 0.011719-0.42578 0-0.63672-0.085937-1.0703 0.26172-2.125 0.96484-2.9375-0.73047 0.63281-1.4258 1.3086-2.0859 2.0156zm0 0c-0.57031 0.65625-0.57031 1.6016 0 1.8398v0.003906c0.27344 0.15234 0.60547 0.15234 0.87891 0 0.15234 0 0.19922-0.15234 0.24219-0.28516 0.011719-0.21094 0.011719-0.42578 0-0.63672-0.085937-1.0703 0.26172-2.125 0.96484-2.9375-0.73047 0.63281-1.4258 1.3086-2.0859 2.0156zm0 0c-0.57031 0.65625-0.57031 1.6016 0 1.8398v0.003906c0.27344 0.15234 0.60547 0.15234 0.87891 0 0.15234 0 0.19922-0.15234 0.24219-0.28516 0.011719-0.21094 0.011719-0.42578 0-0.63672-0.085937-1.0703 0.26172-2.125 0.96484-2.9375-0.73047 0.63281-1.4258 1.3086-2.0859 2.0156zm0 0c-0.57031 0.65625-0.57031 1.6016 0 1.8398v0.003906c0.27344 0.15234 0.60547 0.15234 0.87891 0 0.15234 0 0.19922-0.15234 0.24219-0.28516 0.011719-0.21094 0.011719-0.42578 0-0.63672-0.085937-1.0703 0.26172-2.125 0.96484-2.9375-0.73047 0.63281-1.4258 1.3086-2.0859 2.0156zm0 0c-0.57031 0.65625-0.57031 1.6016 0 1.8398v0.003906c0.27344 0.15234 0.60547 0.15234 0.87891 0 0.15234 0 0.19922-0.15234 0.24219-0.28516 0.011719-0.21094 0.011719-0.42578 0-0.63672-0.085937-1.0703 0.26172-2.125 0.96484-2.9375-0.73047 0.63281-1.4258 1.3086-2.0859 2.0156zm0 0c-0.57031 0.65625-0.57031 1.6016 0 1.8398v0.003906c0.27344 0.15234 0.60547 0.15234 0.87891 0 0.15234 0 0.19922-0.15234 0.24219-0.28516 0.011719-0.21094 0.011719-0.42578 0-0.63672-0.085937-1.0703 0.26172-2.125 0.96484-2.9375-0.73047 0.63281-1.4258 1.3086-2.0859 2.0156zm0 0c-0.57031 0.65625-0.57031 1.6016 0 1.8398v0.003906c0.27344 0.15234 0.60547 0.15234 0.87891 0 0.15234 0 0.19922-0.15234 0.24219-0.28516 0.011719-0.21094 0.011719-0.42578 0-0.63672-0.085937-1.0703 0.26172-2.125 0.96484-2.9375-0.73047 0.63281-1.4258 1.3086-2.0859 2.0156zm0 0c-0.57031 0.65625-0.57031 1.6016 0 1.8398v0.003906c0.27344 0.15234 0.60547 0.15234 0.87891 0 0.15234 0 0.19922-0.15234 0.24219-0.28516 0.011719-0.21094 0.011719-0.42578 0-0.63672-0.085937-1.0703 0.26172-2.125 0.96484-2.9375-0.73047 0.63281-1.4258 1.3086-2.0859 2.0156zm0 0c-0.57031 0.65625-0.57031 1.6016 0 1.8398v0.003906c0.27344 0.15234 0.60547 0.15234 0.87891 0 0.15234 0 0.19922-0.15234 0.24219-0.28516 0.011719-0.21094 0.011719-0.42578 0-0.63672-0.085937-1.0703 0.26172-2.125 0.96484-2.9375-0.73047 0.63281-1.4258 1.3086-2.0859 2.0156zm0 0c-0.57031 0.65625-0.57031 1.6016 0 1.8398v0.003906c0.27344 0.15234 0.60547 0.15234 0.87891 0 0.15234 0 0.19922-0.15234 0.24219-0.28516 0.011719-0.21094 0.011719-0.42578 0-0.63672-0.085937-1.0703 0.26172-2.125 0.96484-2.9375-0.73047 0.63281-1.4258 1.3086-2.0859 2.0156zm0 0c-0.57031 0.65625-0.57031 1.6016 0 1.8398v0.003906c0.27344 0.15234 0.60547 0.15234 0.87891 0 0.15234 0 0.19922-0.15234 0.24219-0.28516 0.011719-0.21094 0.011719-0.42578 0-0.63672-0.085937-1.0703 0.26172-2.125 0.96484-2.9375-0.73047 0.63281-1.4258 1.3086-2.0859 2.0156zm152.16-50.426-0.96484 1.0312-1.6211 1.7773v-0.003907c-3.1562 3.4414-7.4609 5.6172-12.102 6.1172h-0.66016c-1.1211 0.16406-2.2266 0.41406-3.3086 0.74609h-0.35156l-2.3242 0.67969h-0.15234 0.13281-0.003906c0.76562-0.48828 1.4961-1.0234 2.1953-1.6016 5.7422-4.043 9.8125-10.047 11.445-16.879 0.15234-0.57031 0.35156-1.0977 0.50391-1.5781v-0.24219l-0.19922 0.17578c-0.21875 0.19922-0.63672 0.57031-1.2266 1.0508-4.8438 4.2305-21.027 17.758-31.176 18.988-14.977 1.8203-23.965 6.25-27.844 8.6367h-0.003906c-0.76172 0.45312-1.4922 0.94922-2.1914 1.4922h-0.13281v-0.13281c0-0.13281 0.72266-1.1172 1.5781-2.1914 2.5664-3.3555 7.9141-9.2305 14.801-10.391 9.1641-1.5586 15.5-10.129 18.262-14.668 0.83203-1.3828 1.3359-2.3906 1.5117-2.7188-0.76562 0.78906-1.4688 1.4922-2.1914 2.082h0.003906c-3.5312 3.0703-7.8672 5.0664-12.5 5.7422-1.5234 0.42578-2.9961 1.0195-4.3828 1.7773-0.58203 0.28516-1.1445 0.59766-1.6914 0.94141h-0.15234v-0.15234l1.1172-1.6016 0.4375-0.63672h0.003906c1.5898-1.9062 3.3281-3.6875 5.1953-5.3281 2.8086-2.4609 4.4062-6.0195 4.3828-9.7539-0.10156-3.082-0.64453-6.1328-1.6211-9.0547-0.30859-0.94141-0.57031-1.6016-0.70312-1.9062v-0.17578l0.003907 0.54688-0.10938 2.0625-0.30859 6.3789c-1.0312 5.3281-4.1875 7.7852-8.1992 10.281-1.1602 0.74609-4.8242 2.6094-4.8242 2.6094s-6.8398 3.9688-7.9375 4.7812c-6.543 4.5547-12.102 10.387-16.336 17.145-0.35156 0.59375-0.57031 1.0078-0.67969 1.25v0.17578c0.011719-0.066407 0.011719-0.13281 0-0.19922v-1.3828 0.003906c-0.25391-6.1289 1.4258-12.18 4.8047-17.301 0.52734-0.78516 1.1289-1.5195 1.7969-2.1914-0.21875 0.13281-5.3281 4.0117-5.918 4.6914-0.24219 0.26172-0.52734 0.50391-0.78906 0.76563-0.26172 0.26172-0.57031 0.57031-0.83203 0.83203l-0.003906 0.003906c-1.9609 2.2148-3.4492 4.8008-4.3828 7.6055-0.91016 3.0625-2.1758 6.0039-3.7734 8.7695-1.6211 2.9375-4.1758 5.2539-7.2578 6.5781l-1.7305 0.65625 0.92188-1.7305c0.83594-1.5469 1.5117-3.1797 2.0156-4.8672 0.95312-3.3906 0.90625-6.9844-0.13281-10.348-0.28906-0.91797-0.66406-1.8047-1.1172-2.6523-0.15625 1.9414-0.71484 3.832-1.6445 5.5469-1.5 2.4414-3.5391 4.5039-5.9648 6.0273-2.2539 1.3125-4.0078 3.3438-4.9766 5.7695-0.91797 2.4062-0.91797 5.0664 0 7.4766l0.32812 0.76562-0.72266 0.19922v-0.003906c-2.0625 0.57812-4.0156 1.5039-5.7656 2.7422-1.6875 1.3008-3.168 2.8516-4.3828 4.6055-0.61328 0.89844-1.2266 1.7969-1.8203 2.7422v-0.003907c-0.54688 1.0469-1.293 1.9805-2.1953 2.7422-2.0938 1.0742-4.4453 1.5586-6.7969 1.4023-4.5156 0-8.9883-1.0312-13.156-1.293h0.003907c-1.0273-0.019532-2.0391 0.20703-2.9609 0.65625-0.92188 0.5-1.7578 1.1445-2.4766 1.9102-0.42188 0.4375-0.90234 0.8125-1.4258 1.1172-0.62891 0.32812-1.3555 0.40625-2.0391 0.21875-0.82422-0.21875-1.6055-0.58203-2.3008-1.0742-0.003906 0.40234 0.085937 0.80078 0.26172 1.1641 0.17578 0.32031 0.41406 0.60156 0.70313 0.83203 0.26953 0.23438 0.58203 0.41797 0.91797 0.54688l1.1602 0.4375-1.0312 0.65625 0.003907 0.003906c-0.88281 0.50391-1.5859 1.2695-2.0156 2.1914-0.36328 0.92188-0.36328 1.9492 0 2.8711 0 0.19922 0.15234 0.41797 0.24219 0.61328l-0.003906 0.003906c0.23047-0.93359 0.69922-1.7852 1.3594-2.4805l1.6445-1.8633-0.63672 2.4336h0.003907c-0.67969 2.2148-0.97656 4.5273-0.87891 6.8398 0.046876 1.0781 0.45703 2.1055 1.1641 2.918 0.58203 0.57812 1.3711 0.89844 2.1914 0.89844 0-0.64062 0.13281-1.2773 0.39453-1.8633 0.35547-0.75781 0.89063-1.4219 1.5547-1.9297 1.3086-0.94141 2.8047-1.5859 4.3867-1.8867l0.50391-0.10938 0.13281 0.52734c0.33984 1.2812 0.99609 2.457 1.9062 3.4219 0.93359 0.89844 2.1523 1.4414 3.4414 1.5312 0.92578 0.085938 1.8633-0.023437 2.7422-0.32812h-0.26562c-0.76172-0.054687-1.5039-0.25391-2.1914-0.58984-0.70703-0.42578-1.2539-1.0742-1.5547-1.8438-0.30859-0.69922-0.52344-1.4375-0.63672-2.1914 0-0.37109 0-0.70312-0.13281-1.1172-0.0625-0.48438 0.0625-0.96875 0.35156-1.3594 0.61719-0.625 1.4727-0.94531 2.3477-0.87891 2.9805 0 5.7227 0.87891 8.4414 1.1172 1.332-0.14844 2.6289-0.52734 3.8359-1.1172 1.3359-0.60156 2.7539-1.0078 4.207-1.207 0.42578-0.023437 0.85156 0.035156 1.25 0.17578l0.96484 0.35156c0.65234 0.19531 1.3203 0.33203 1.9961 0.41797 1.3438 0.19531 2.7109 0.19531 4.0547 0 5.4453-1.293 10.477-3.9414 14.625-7.6953l0.94141-0.76562-0.21875 1.1602c-0.32812 1.3398-0.76562 2.6523-1.3125 3.9219-0.50391 1.3047-1.1523 2.5469-1.9297 3.707-1.9297 1.9062-3.9727 3.6914-6.1172 5.3516-1.0977 0.83203-2.1914 1.6016-3.3555 2.3672-1.2422 0.5625-2.5273 1.0391-3.8359 1.4258-2.5234 0.77734-4.3359 2.9844-4.6055 5.6094v0.24219h-0.24219c-1.582 0.046874-3.1602-0.17188-4.668-0.65625-1.3555-0.40234-2.668-0.92969-3.9258-1.5781-0.007813 0.61719 0.050781 1.2344 0.17578 1.8398 0.21875 0.61328 0.96484 1.0508 1.5781 1.5586l0.59375 0.41797-1.0742-0.003907c-2.3203-0.027343-4.5391 0.95703-6.0742 2.6992-1.207 1.7891-1.7461 3.9492-1.5117 6.0938 0.44531-0.56641 0.94141-1.0859 1.4883-1.5547 0.66406-0.57031 1.4023-1.043 2.1953-1.4062 1.6602-0.69531 3.5-0.86328 5.2617-0.48047h0.26172l-0.17578 0.21875c-1.9805 2.1289-3.3594 4.7461-3.9883 7.5859-0.26563 1.4102-0.023438 2.8711 0.67969 4.1211 0.33594 0.62891 0.80859 1.1758 1.3789 1.6016 0.27734 0.23047 0.58594 0.41797 0.92188 0.54688 0.28516 0.10938 0.78906 0.17578 0.83203 0-0.37891-1.5-0.10938-3.0938 0.74609-4.3828 0.98438-1.2227 2.4102-2.0078 3.9688-2.1953 1.5273-0.18359 3.0078-0.62891 4.3867-1.3125 1.418-0.61328 2.4102-1.9297 2.6055-3.4648 1.3867 1.2109 2.4922 2.707 3.2461 4.3828 0 0.17578 0 0.30859 0.15234 0.48047v0.003906c0.015625 0.11719 0.015625 0.23438 0 0.35156 0.023438 0.09375 0.023438 0.19141 0 0.28516 0.011719 0.058594 0.011719 0.11719 0 0.17578v0.41797 0.74609-0.003906c0.023438 0.32031 0.023438 0.64453 0 0.96484 0.023438 0.21875 0.023438 0.4375 0 0.65625 0.015625 0.058594 0.015625 0.11719 0 0.17578-0.058594 0.19531-0.10938 0.39453-0.15234 0.59375 0 0.17578 0 0.35156-0.17578 0.54688v0.15234c0.011719 0.097657 0.011719 0.19141 0 0.28516v0.13281c0 0.15234 0 0.28516-0.15234 0.4375-0.15234 0.15234-0.21875 0.4375-0.32813 0.65625l0.32813-0.17578v0.003906c0.125-0.035156 0.24219-0.085937 0.35156-0.15234h0.19922-0.003907c0.32031-0.14453 0.62891-0.3125 0.92188-0.50781l0.41797-0.28516 0.41797-0.30859c0.30859-0.21875 0.59375-0.46094 0.89844-0.72266l-0.003906 0.003906c1.4062-0.99219 2.4102-2.457 2.8281-4.125 0.87109-2.9961 0.32031-6.2266-1.4883-8.7695 2.5117-0.6875 4.8711-1.8477 6.9492-3.418 1.9805-1.6953 4.1953-3.0898 6.5781-4.1445 2.4062-1.1211 5.1328-1.3516 7.6953-0.65625 2.4922 0.9375 4.6016 2.6719 6.0078 4.9297 0.66016 1.1094 1.3945 2.168 2.1914 3.1797 0.84766 0.97266 1.7891 1.8633 2.8086 2.6523 2.0742 1.5391 4.4727 2.5742 7.0156 3.0273 4.7422 0.74219 9.6016 0.21484 14.074-1.5352-0.77344-0.046875-1.543-0.19531-2.2812-0.4375-1.1016-0.5-2.1562-1.0938-3.1562-1.7773-2.0352-1.1367-4.2656-1.8789-6.5781-2.1914-1.2188-0.11719-2.418-0.38281-3.5742-0.78906-1.1445-0.50781-2.1367-1.3086-2.8711-2.3242-1.2383-2.1133-1.9219-4.5039-1.9961-6.9492l-0.13281-1.0312 0.78906 0.67969h0.003907c3.2227 2.7773 6.8086 5.1094 10.656 6.9258 3.7266 2.0078 8.0117 2.7227 12.188 2.0391 2.0117-0.61719 3.9141-1.5508 5.6367-2.7617 1.8516-1.0898 3.7969-2.0234 5.8086-2.7852 2.043-0.81641 4.1914-1.3359 6.3828-1.5312 1.6484-0.085937 3.3008 0.054688 4.9102 0.41406 0.36719 0.089844 0.73047 0.21484 1.0742 0.375-4.1641-9.0312-27.145-6.5781-31.418-6.1406h-0.70312l0.15234-0.26172c0.050781-0.12891 0.11719-0.24609 0.19922-0.35156 5.5234-9.6016 23.461-6.2031 23.48-6.2266 2.8867-0.011719 5.7617-0.38672 8.5508-1.1172l1.1172-0.32813v-0.003906c0.26172-0.074218 0.51953-0.16016 0.76953-0.26172 0.35938-0.10938 0.71094-0.24219 1.0508-0.39453 0.35156-0.11719 0.69922-0.25391 1.0312-0.41797 2.3633-1.0781 4.4648-2.6562 6.1602-4.625l0.63672-0.78906c2.0039-2.7422 3.1641-6.0117 3.332-9.4062v-0.61328-0.375c-0.41797 0.86328-1.0352 1.6133-1.7969 2.1953-0.82422 0.44922-1.7031 0.80469-2.6094 1.0508-1.7695 0.49609-3.582 0.82031-5.4141 0.96484-3.5977 0.26562-7.2109 0.26562-10.809 0-3.3008-0.19141-6.6133-0.074219-9.8906 0.35156h-0.67969c-0.61328 0-1.25 0.21875-1.8867 0.35156l-0.61328 0.13281-1.0078 0.26172-0.65625 0.21875c-0.11719-0.023438-0.23438-0.023438-0.35156 0l-0.67969 0.21875c-1.5664 0.50391-3.043 1.2422-4.3867 2.1914l-2.8711 2.1914 1.7969-3.0273v0.003906c0.65234-1.1406 1.4805-2.1719 2.457-3.0469 0.89062-0.76172 1.8867-1.3906 2.9609-1.8633l0.37109-0.17578h0.30859l0.35156-0.15234 0.65625-0.21875v-0.003906c0.32813-0.11328 0.66797-0.20703 1.0078-0.28516 0.33594-0.10547 0.67969-0.1875 1.0312-0.23828 1.3477-0.25391 2.7109-0.40625 4.0781-0.46094 2.5195-0.13281 5 0.15234 7.3906 0s4.9336 0 7.3242-0.30859h-0.003906c2.3828-0.17188 4.7227-0.72656 6.9297-1.6445 2.1641-0.96875 4.043-2.4805 5.457-4.3828l0.50391-0.59375 0.13281-0.13281 0.37109-0.46094 0.003906 0.003907c0.10156-0.11328 0.19531-0.23047 0.28125-0.35156 0.011719-0.050781 0.011719-0.10156 0-0.15234 0.13281-0.13281 0.24219-0.28516 0.37109-0.4375l0.30859-0.48047v-0.13672l0.54688-0.78906c0.48047-0.74609 0.96484-1.4922 1.4258-2.1914l1.9297-3.1992c0.26172-0.41797 0.50391-0.85547 0.74609-1.293-4.9102 3.1133-15.566 3.4648-25.453 1.0312v-0.003907c-6.1484-1.7148-12.746-0.51172-17.891 3.2656-0.79688 0.58203-1.5312 1.2422-2.1914 1.9727 0.39453-0.91016 0.94531-1.7461 1.6211-2.4766 4.3867-4.8242 15.676-9.8672 36.199-11.117 12.035-0.74609 15.766-10.633 16.793-14.668 0.15234-0.63672 0.26172-1.1172 0.30859-1.4023-0.007813-0.09375-0.007813-0.1875 0-0.28516zm-152.66 53.168c-0.61719-0.34766-0.96875-1.0273-0.89844-1.7305 0.066406-0.60938 0.36719-1.168 0.83594-1.5586 0.78125-0.66797 1.6797-1.1875 2.6523-1.5352-0.32812 0.91406-0.39062 1.9023-0.17578 2.8516 0.046875 0.27344 0.046875 0.55859 0 0.83203-0.042969 0.37109-0.23438 0.71094-0.52734 0.94141-0.54297 0.41016-1.2695 0.48828-1.8867 0.19922zm4.6484 5.4141c-0.70312 0.27734-1.4883 0.27734-2.1914 0-0.76172-0.3125-1.3008-1.0039-1.4258-1.8203-0.25391-0.90234 0.21875-1.8516 1.0977-2.1914 0.77344-0.14453 1.5742 0.054688 2.1914 0.54688 1.0703 0.61328 2.2773 0.94531 3.5078 0.96484-0.89063 1.0312-1.9688 1.8789-3.1797 2.5zm37.117-16.949 0.003906 0.003906c-0.16016-1.9805 1.082-3.8047 2.9805-4.3867 0.79688-0.33984 1.7031-0.33984 2.5 0 0.72656 0.375 1.2969 0.99609 1.6016 1.7539l0.30859 0.85547-0.89844 0.15234h-0.003906c-1.8906 0.30078-3.6797 1.0547-5.2188 2.1953l-1.293 1.0977zm-8.5508-0.74609 0.003906 0.003907c0.15625 0.47656 0.38281 0.92969 0.67969 1.3359 0.25391 0.38672 0.55469 0.74219 0.89844 1.0547 0.77734 0.67188 1.6133 1.2734 2.5 1.7969-1.2266 0.5-2.6289 0.22656-3.5742-0.70312-0.48438-0.45703-0.8125-1.0547-0.94141-1.7109-0.18359-0.625-0.019531-1.3047 0.4375-1.7734zm-2.9375 2.5859 0.003906 0.003906c0.35547 0.78125 0.80469 1.5156 1.3359 2.1914 0.24609 0.30469 0.53516 0.57031 0.85547 0.78906 0.37109 0.26562 0.75781 0.50781 1.1602 0.72656-1.0156 0.28125-2.1055-0.042969-2.8047-0.83594-0.67578-0.79297-0.88281-1.8828-0.54688-2.8711zm-3.1992 2.5859c0.41797 0.4375 0.74609 0.89844 1.1406 1.2734v0.003906c0.46094 0.58203 1.043 1.0547 1.7109 1.3828-0.42188 0.17188-0.89453 0.17188-1.3164 0-0.44141-0.16016-0.84375-0.42188-1.1602-0.76953-0.60938-0.64844-0.91797-1.5234-0.85547-2.4102 0.17578 0.21875 0.32812 0.39453 0.48047 0.52344zm8.7695 28.941v0.003906c-0.80078 0.54688-1.7031 0.9375-2.6523 1.1406-0.96094 0.26172-1.9883-0.074219-2.6094-0.85547 0.67188 0.64453 1.6602 0.83203 2.5234 0.48438 0.86719-0.27734 1.668-0.73047 2.3438-1.3398 1.4258-1.168 2.7227-2.4922 3.8594-3.9453 0.59375-0.70312 1.1406-1.4688 1.7109-2.1914 0.59375-0.79297 1.2617-1.5273 1.9961-2.1914l4.1875-3.75c2.6523-2.5859 5.3047-5.1523 5.9414-8.6172 0.67188-2.918 0.88672-5.918 0.63672-8.9023-1.9102 1.6953-3.9297 3.2539-6.0547 4.6719-2.6133 1.8516-5.4766 3.3281-8.5039 4.3828-1.5391 0.51172-3.1406 0.80859-4.7578 0.87891-0.80078 0.011719-1.5977-0.03125-2.3906-0.13281l-2.4141-0.26172c-1.5273-0.082032-3.0625-0.007813-4.582 0.21875-1.5469 0.11719-2.9883 0.82422-4.0312 1.9727 0.94141-1.3359 2.3906-2.2266 4.0117-2.457 1.5078-0.375 3.0508-0.59766 4.6016-0.65625 1.5586-0.15234 3.2227 0 4.625 0h0.003906c1.5039-0.16016 2.9766-0.51953 4.3828-1.0742 2.8203-1.125 5.4844-2.5977 7.9375-4.3867 2.5391-1.793 4.9375-3.7773 7.1719-5.9414l1.4258-1.3594 0.30859 1.9062-0.003906 0.003906c0.60937 3.8516 0.50781 7.7812-0.30859 11.598-0.42969 1.9844-1.3242 3.8398-2.6094 5.4141-1.2188 1.4961-2.5781 2.875-4.0547 4.1211-1.4258 1.2734-2.9375 2.4336-4.3867 3.5742h0.003907c-0.71094 0.54297-1.3711 1.1445-1.9766 1.7969-0.63672 0.72266-1.207 1.4922-1.8867 2.1914l0.003906 0.003906c-1.2969 1.4258-2.7773 2.6719-4.4062 3.7031zm44.684-36.457c-0.36719 2.0703-1.0625 4.0703-2.0586 5.9219-1.0547 1.8945-2.5625 3.4961-4.3867 4.668-1.1992 0.79688-2.5273 1.375-3.9258 1.7109l0.67969 0.37109c0.79688 0.44531 1.6523 0.76172 2.543 0.94531 0.88672 0.20312 1.793 0.27734 2.6992 0.21875 0.92188-0.046875 1.8398-0.17969 2.7383-0.39453l1.5586-0.37109-0.39453 1.4023c-0.16797 0.63672-0.47266 1.2266-0.89844 1.7305-0.36328 0.42578-0.76953 0.81641-1.207 1.1641-0.80859 0.67578-1.6914 1.2578-2.6289 1.7305-1.8398 0.92188-3.7617 1.6562-5.7461 2.1914-3.8828 1-7.8438 1.6719-11.84 2.0195-2.0781 0.58203-4.0078 1.6055-5.6562 3.0039-1.7031 1.4883-3.1328 3.2617-4.2305 5.2383-1.1289 2.0781-2.6133 3.9414-4.3867 5.5039-1.7305 1.5664-3.7812 2.7422-6.0078 3.4414 2.1328-0.86328 4.0703-2.1445 5.7031-3.7695 1.6211-1.6172 2.9609-3.4922 3.9648-5.5469 1.0234-2.1523 2.4453-4.0859 4.1875-5.7031 1.7812-1.6289 3.8984-2.8438 6.207-3.5508 2.1914-0.26172 4.1641-0.59375 6.2031-1.0078 2.0391-0.41797 3.5742-0.78906 5.3281-1.293 1.8555-0.5625 3.6562-1.2969 5.3711-2.1953 0.78516-0.43359 1.5195-0.94922 2.1953-1.5312 0.125-0.10156 0.24219-0.21094 0.34766-0.33203h-0.87891 0.003907c-1.0156 0.054687-2.0312-0.019531-3.0273-0.21875-1.0625-0.21094-2.0898-0.58203-3.0469-1.0938-0.98438-0.5-1.8867-1.1523-2.6758-1.9297l-1.25-1.25 1.8203-0.41797c1.8281-0.28125 3.5781-0.92187 5.1523-1.8867 1.5625-0.97656 2.8594-2.3242 3.7734-3.9219 0.91406-1.6484 1.5508-3.4336 1.8867-5.2852 0.20703-1.1602 0.33984-2.332 0.39453-3.5078-0.77344 0.62109-1.6406 1.1172-2.5664 1.4688-0.84766 0.3125-1.7305 0.50391-2.6328 0.57031-0.83984 0.023438-1.6836-0.015624-2.5195-0.10937-1.5352-0.14063-3.082-0.078126-4.6055 0.17578-1.5 0.25781-2.9727 0.67969-4.3828 1.25l-1.4453 0.59375 0.4375-1.4453-0.003907-0.003906c0.45312-1.5586 0.55859-3.1992 0.30859-4.8008-0.17969-1.1758-0.51953-2.3164-1.0078-3.3984-0.20703 0.44141-0.5 0.84375-0.85547 1.1836-0.69922 0.63672-1.5312 1.1055-2.4336 1.3789-0.86719 0.31641-1.7773 0.5-2.6992 0.55078h-2.5859c-1.7266 0.10547-3.4336 0.41406-5.0859 0.91797-1.7031 0.44922-3.2305 1.3945-4.3867 2.7188 1.0547-1.4219 2.5156-2.4922 4.1875-3.0664 1.6641-0.60938 3.3945-1.0156 5.1523-1.207 0.87891 0 1.7539-0.17578 2.6094-0.21875 0.83594-0.097656 1.6562-0.30469 2.4336-0.61328 1.543-0.39062 2.6875-1.6914 2.875-3.2695v-1.8398l1.0078 1.5586v-0.003906c0.96484 1.5352 1.6289 3.2383 1.9492 5.0234 0.26953 1.3203 0.30469 2.6758 0.11328 4.0117 1.1328-0.41016 2.3008-0.73438 3.4844-0.96484 1.6484-0.35156 3.3398-0.46094 5.0195-0.32813 0.73047 0.046876 1.4648 0.046876 2.1953 0 0.75-0.023437 1.4922-0.16797 2.1914-0.44141 1.3086-0.45312 2.4688-1.2578 3.3555-2.3242l1.4922-2.1914 0.21875 2.5664h-0.003906c0.16406 2.0742 0.054687 4.1602-0.32813 6.2031zm-80.027 11.883c-0.57031 0.65625-0.57031 1.6016 0 1.8398v0.003906c0.27344 0.15234 0.60547 0.15234 0.87891 0 0.15234 0 0.19922-0.15234 0.24219-0.28516 0.011719-0.21094 0.011719-0.42578 0-0.63672-0.085937-1.0703 0.26172-2.125 0.96484-2.9375-0.73047 0.63281-1.4258 1.3086-2.0859 2.0156zm0 0c-0.57031 0.65625-0.57031 1.6016 0 1.8398v0.003906c0.27344 0.15234 0.60547 0.15234 0.87891 0 0.15234 0 0.19922-0.15234 0.24219-0.28516 0.011719-0.21094 0.011719-0.42578 0-0.63672-0.085937-1.0703 0.26172-2.125 0.96484-2.9375-0.73047 0.63281-1.4258 1.3086-2.0859 2.0156zm0 0c-0.57031 0.65625-0.57031 1.6016 0 1.8398v0.003906c0.27344 0.15234 0.60547 0.15234 0.87891 0 0.15234 0 0.19922-0.15234 0.24219-0.28516 0.011719-0.21094 0.011719-0.42578 0-0.63672-0.085937-1.0703 0.26172-2.125 0.96484-2.9375-0.73047 0.63281-1.4258 1.3086-2.0859 2.0156zm0 0c-0.57031 0.65625-0.57031 1.6016 0 1.8398v0.003906c0.27344 0.15234 0.60547 0.15234 0.87891 0 0.15234 0 0.19922-0.15234 0.24219-0.28516 0.011719-0.21094 0.011719-0.42578 0-0.63672-0.085937-1.0703 0.26172-2.125 0.96484-2.9375-0.73047 0.63281-1.4258 1.3086-2.0859 2.0156zm0 0c-0.57031 0.65625-0.57031 1.6016 0 1.8398v0.003906c0.27344 0.15234 0.60547 0.15234 0.87891 0 0.15234 0 0.19922-0.15234 0.24219-0.28516 0.011719-0.21094 0.011719-0.42578 0-0.63672-0.085937-1.0703 0.26172-2.125 0.96484-2.9375-0.73047 0.63281-1.4258 1.3086-2.0859 2.0156zm0 0c-0.57031 0.65625-0.57031 1.6016 0 1.8398v0.003906c0.27344 0.15234 0.60547 0.15234 0.87891 0 0.15234 0 0.19922-0.15234 0.24219-0.28516 0.011719-0.21094 0.011719-0.42578 0-0.63672-0.085937-1.0703 0.26172-2.125 0.96484-2.9375-0.73047 0.63281-1.4258 1.3086-2.0859 2.0156zm0 0c-0.57031 0.65625-0.57031 1.6016 0 1.8398v0.003906c0.27344 0.15234 0.60547 0.15234 0.87891 0 0.15234 0 0.19922-0.15234 0.24219-0.28516 0.011719-0.21094 0.011719-0.42578 0-0.63672-0.085937-1.0703 0.26172-2.125 0.96484-2.9375-0.73047 0.63281-1.4258 1.3086-2.0859 2.0156zm0 0c-0.57031 0.65625-0.57031 1.6016 0 1.8398v0.003906c0.27344 0.15234 0.60547 0.15234 0.87891 0 0.15234 0 0.19922-0.15234 0.24219-0.28516 0.011719-0.21094 0.011719-0.42578 0-0.63672-0.085937-1.0703 0.26172-2.125 0.96484-2.9375-0.73047 0.63281-1.4258 1.3086-2.0859 2.0156zm0 0c-0.57031 0.65625-0.57031 1.6016 0 1.8398v0.003906c0.27344 0.15234 0.60547 0.15234 0.87891 0 0.15234 0 0.19922-0.15234 0.24219-0.28516 0.011719-0.21094 0.011719-0.42578 0-0.63672-0.085937-1.0703 0.26172-2.125 0.96484-2.9375-0.73047 0.63281-1.4258 1.3086-2.0859 2.0156zm0 0c-0.57031 0.65625-0.57031 1.6016 0 1.8398v0.003906c0.27344 0.15234 0.60547 0.15234 0.87891 0 0.15234 0 0.19922-0.15234 0.24219-0.28516 0.011719-0.21094 0.011719-0.42578 0-0.63672-0.085937-1.0703 0.26172-2.125 0.96484-2.9375-0.73047 0.63281-1.4258 1.3086-2.0859 2.0156zm0 0c-0.57031 0.65625-0.57031 1.6016 0 1.8398v0.003906c0.27344 0.15234 0.60547 0.15234 0.87891 0 0.15234 0 0.19922-0.15234 0.24219-0.28516 0.011719-0.21094 0.011719-0.42578 0-0.63672-0.085937-1.0703 0.26172-2.125 0.96484-2.9375-0.73047 0.63281-1.4258 1.3086-2.0859 2.0156zm0 0c-0.57031 0.65625-0.57031 1.6016 0 1.8398v0.003906c0.27344 0.15234 0.60547 0.15234 0.87891 0 0.15234 0 0.19922-0.15234 0.24219-0.28516 0.011719-0.21094 0.011719-0.42578 0-0.63672-0.085937-1.0703 0.26172-2.125 0.96484-2.9375-0.73047 0.63281-1.4258 1.3086-2.0859 2.0156zm0 0c-0.57031 0.65625-0.57031 1.6016 0 1.8398v0.003906c0.27344 0.15234 0.60547 0.15234 0.87891 0 0.15234 0 0.19922-0.15234 0.24219-0.28516 0.011719-0.21094 0.011719-0.42578 0-0.63672-0.085937-1.0703 0.26172-2.125 0.96484-2.9375-0.73047 0.63281-1.4258 1.3086-2.0859 2.0156zm0 0c-0.57031 0.65625-0.57031 1.6016 0 1.8398v0.003906c0.27344 0.15234 0.60547 0.15234 0.87891 0 0.15234 0 0.19922-0.15234 0.24219-0.28516 0.011719-0.21094 0.011719-0.42578 0-0.63672-0.085937-1.0703 0.26172-2.125 0.96484-2.9375-0.73047 0.63281-1.4258 1.3086-2.0859 2.0156zm0 0c-0.57031 0.65625-0.57031 1.6016 0 1.8398v0.003906c0.27344 0.15234 0.60547 0.15234 0.87891 0 0.15234 0 0.19922-0.15234 0.24219-0.28516 0.011719-0.21094 0.011719-0.42578 0-0.63672-0.085937-1.0703 0.26172-2.125 0.96484-2.9375-0.73047 0.63281-1.4258 1.3086-2.0859 2.0156zm0 0c-0.57031 0.65625-0.57031 1.6016 0 1.8398v0.003906c0.27344 0.15234 0.60547 0.15234 0.87891 0 0.15234 0 0.19922-0.15234 0.24219-0.28516 0.011719-0.21094 0.011719-0.42578 0-0.63672-0.085937-1.0703 0.26172-2.125 0.96484-2.9375-0.73047 0.63281-1.4258 1.3086-2.0859 2.0156zm34.445 34.402-0.21875 0.24219 0.32812-0.32812v-0.003906c-0.042968 0.019531-0.082031 0.050781-0.10938 0.089844zm-34.445-34.402c-0.57031 0.65625-0.57031 1.6016 0 1.8398v0.003906c0.27344 0.15234 0.60547 0.15234 0.87891 0 0.15234 0 0.19922-0.15234 0.24219-0.28516 0.011719-0.21094 0.011719-0.42578 0-0.63672-0.085937-1.0703 0.26172-2.125 0.96484-2.9375-0.73047 0.63281-1.4258 1.3086-2.0859 2.0156zm0 0c-0.57031 0.65625-0.57031 1.6016 0 1.8398v0.003906c0.27344 0.15234 0.60547 0.15234 0.87891 0 0.15234 0 0.19922-0.15234 0.24219-0.28516 0.011719-0.21094 0.011719-0.42578 0-0.63672-0.085937-1.0703 0.26172-2.125 0.96484-2.9375-0.73047 0.63281-1.4258 1.3086-2.0859 2.0156zm0 0c-0.57031 0.65625-0.57031 1.6016 0 1.8398v0.003906c0.27344 0.15234 0.60547 0.15234 0.87891 0 0.15234 0 0.19922-0.15234 0.24219-0.28516 0.011719-0.21094 0.011719-0.42578 0-0.63672-0.085937-1.0703 0.26172-2.125 0.96484-2.9375-0.73047 0.63281-1.4258 1.3086-2.0859 2.0156zm0 0c-0.57031 0.65625-0.57031 1.6016 0 1.8398v0.003906c0.27344 0.15234 0.60547 0.15234 0.87891 0 0.15234 0 0.19922-0.15234 0.24219-0.28516 0.011719-0.21094 0.011719-0.42578 0-0.63672-0.085937-1.0703 0.26172-2.125 0.96484-2.9375-0.73047 0.63281-1.4258 1.3086-2.0859 2.0156zm0 0c-0.57031 0.65625-0.57031 1.6016 0 1.8398v0.003906c0.27344 0.15234 0.60547 0.15234 0.87891 0 0.15234 0 0.19922-0.15234 0.24219-0.28516 0.011719-0.21094 0.011719-0.42578 0-0.63672-0.085937-1.0703 0.26172-2.125 0.96484-2.9375-0.73047 0.63281-1.4258 1.3086-2.0859 2.0156zm0 0c-0.57031 0.65625-0.57031 1.6016 0 1.8398v0.003906c0.27344 0.15234 0.60547 0.15234 0.87891 0 0.15234 0 0.19922-0.15234 0.24219-0.28516 0.011719-0.21094 0.011719-0.42578 0-0.63672-0.085937-1.0703 0.26172-2.125 0.96484-2.9375-0.73047 0.63281-1.4258 1.3086-2.0859 2.0156zm0 0c-0.57031 0.65625-0.57031 1.6016 0 1.8398v0.003906c0.27344 0.15234 0.60547 0.15234 0.87891 0 0.15234 0 0.19922-0.15234 0.24219-0.28516 0.011719-0.21094 0.011719-0.42578 0-0.63672-0.085937-1.0703 0.26172-2.125 0.96484-2.9375-0.73047 0.63281-1.4258 1.3086-2.0859 2.0156zm0 0c-0.57031 0.65625-0.57031 1.6016 0 1.8398v0.003906c0.27344 0.15234 0.60547 0.15234 0.87891 0 0.15234 0 0.19922-0.15234 0.24219-0.28516 0.011719-0.21094 0.011719-0.42578 0-0.63672-0.085937-1.0703 0.26172-2.125 0.96484-2.9375-0.73047 0.63281-1.4258 1.3086-2.0859 2.0156zm0 0c-0.57031 0.65625-0.57031 1.6016 0 1.8398v0.003906c0.27344 0.15234 0.60547 0.15234 0.87891 0 0.15234 0 0.19922-0.15234 0.24219-0.28516 0.011719-0.21094 0.011719-0.42578 0-0.63672-0.085937-1.0703 0.26172-2.125 0.96484-2.9375-0.73047 0.63281-1.4258 1.3086-2.0859 2.0156zm0 0c-0.57031 0.65625-0.57031 1.6016 0 1.8398v0.003906c0.27344 0.15234 0.60547 0.15234 0.87891 0 0.15234 0 0.19922-0.15234 0.24219-0.28516 0.011719-0.21094 0.011719-0.42578 0-0.63672-0.085937-1.0703 0.26172-2.125 0.96484-2.9375-0.73047 0.63281-1.4258 1.3086-2.0859 2.0156zm0 0c-0.57031 0.65625-0.57031 1.6016 0 1.8398v0.003906c0.27344 0.15234 0.60547 0.15234 0.87891 0 0.15234 0 0.19922-0.15234 0.24219-0.28516 0.011719-0.21094 0.011719-0.42578 0-0.63672-0.085937-1.0703 0.26172-2.125 0.96484-2.9375-0.73047 0.63281-1.4258 1.3086-2.0859 2.0156zm0 0c-0.57031 0.65625-0.57031 1.6016 0 1.8398v0.003906c0.27344 0.15234 0.60547 0.15234 0.87891 0 0.15234 0 0.19922-0.15234 0.24219-0.28516 0.011719-0.21094 0.011719-0.42578 0-0.63672-0.085937-1.0703 0.26172-2.125 0.96484-2.9375-0.73047 0.63281-1.4258 1.3086-2.0859 2.0156zm0 0c-0.57031 0.65625-0.57031 1.6016 0 1.8398v0.003906c0.27344 0.15234 0.60547 0.15234 0.87891 0 0.15234 0 0.19922-0.15234 0.24219-0.28516 0.011719-0.21094 0.011719-0.42578 0-0.63672-0.085937-1.0703 0.26172-2.125 0.96484-2.9375-0.73047 0.63281-1.4258 1.3086-2.0859 2.0156zm0 0c-0.57031 0.65625-0.57031 1.6016 0 1.8398v0.003906c0.27344 0.15234 0.60547 0.15234 0.87891 0 0.15234 0 0.19922-0.15234 0.24219-0.28516 0.011719-0.21094 0.011719-0.42578 0-0.63672-0.085937-1.0703 0.26172-2.125 0.96484-2.9375-0.73047 0.63281-1.4258 1.3086-2.0859 2.0156zm0 0c-0.57031 0.65625-0.57031 1.6016 0 1.8398v0.003906c0.27344 0.15234 0.60547 0.15234 0.87891 0 0.15234 0 0.19922-0.15234 0.24219-0.28516 0.011719-0.21094 0.011719-0.42578 0-0.63672-0.085937-1.0703 0.26172-2.125 0.96484-2.9375-0.73047 0.63281-1.4258 1.3086-2.0859 2.0156zm0 0c-0.57031 0.65625-0.57031 1.6016 0 1.8398v0.003906c0.27344 0.15234 0.60547 0.15234 0.87891 0 0.15234 0 0.19922-0.15234 0.24219-0.28516 0.011719-0.21094 0.011719-0.42578 0-0.63672-0.085937-1.0703 0.26172-2.125 0.96484-2.9375-0.73047 0.63281-1.4258 1.3086-2.0859 2.0156zm0 0c-0.57031 0.65625-0.57031 1.6016 0 1.8398v0.003906c0.27344 0.15234 0.60547 0.15234 0.87891 0 0.15234 0 0.19922-0.15234 0.24219-0.28516 0.011719-0.21094 0.011719-0.42578 0-0.63672-0.085937-1.0703 0.26172-2.125 0.96484-2.9375-0.73047 0.63281-1.4258 1.3086-2.0859 2.0156zm0 0c-0.57031 0.65625-0.57031 1.6016 0 1.8398v0.003906c0.27344 0.15234 0.60547 0.15234 0.87891 0 0.15234 0 0.19922-0.15234 0.24219-0.28516 0.011719-0.21094 0.011719-0.42578 0-0.63672-0.085937-1.0703 0.26172-2.125 0.96484-2.9375-0.73047 0.63281-1.4258 1.3086-2.0859 2.0156zm0 0c-0.57031 0.65625-0.57031 1.6016 0 1.8398v0.003906c0.27344 0.15234 0.60547 0.15234 0.87891 0 0.15234 0 0.19922-0.15234 0.24219-0.28516 0.011719-0.21094 0.011719-0.42578 0-0.63672-0.085937-1.0703 0.26172-2.125 0.96484-2.9375-0.73047 0.63281-1.4258 1.3086-2.0859 2.0156zm0 0c-0.57031 0.65625-0.57031 1.6016 0 1.8398v0.003906c0.27344 0.15234 0.60547 0.15234 0.87891 0 0.15234 0 0.19922-0.15234 0.24219-0.28516 0.011719-0.21094 0.011719-0.42578 0-0.63672-0.085937-1.0703 0.26172-2.125 0.96484-2.9375-0.73047 0.63281-1.4258 1.3086-2.0859 2.0156zm0 0c-0.57031 0.65625-0.57031 1.6016 0 1.8398v0.003906c0.27344 0.15234 0.60547 0.15234 0.87891 0 0.15234 0 0.19922-0.15234 0.24219-0.28516 0.011719-0.21094 0.011719-0.42578 0-0.63672-0.085937-1.0703 0.26172-2.125 0.96484-2.9375-0.73047 0.63281-1.4258 1.3086-2.0859 2.0156zm0 0c-0.57031 0.65625-0.57031 1.6016 0 1.8398v0.003906c0.27344 0.15234 0.60547 0.15234 0.87891 0 0.15234 0 0.19922-0.15234 0.24219-0.28516 0.011719-0.21094 0.011719-0.42578 0-0.63672-0.085937-1.0703 0.26172-2.125 0.96484-2.9375-0.73047 0.63281-1.4258 1.3086-2.0859 2.0156zm0 0c-0.57031 0.65625-0.57031 1.6016 0 1.8398v0.003906c0.27344 0.15234 0.60547 0.15234 0.87891 0 0.15234 0 0.19922-0.15234 0.24219-0.28516 0.011719-0.21094 0.011719-0.42578 0-0.63672-0.085937-1.0703 0.26172-2.125 0.96484-2.9375-0.73047 0.63281-1.4258 1.3086-2.0859 2.0156zm0 0c-0.57031 0.65625-0.57031 1.6016 0 1.8398v0.003906c0.27344 0.15234 0.60547 0.15234 0.87891 0 0.15234 0 0.19922-0.15234 0.24219-0.28516 0.011719-0.21094 0.011719-0.42578 0-0.63672-0.085937-1.0703 0.26172-2.125 0.96484-2.9375-0.73047 0.63281-1.4258 1.3086-2.0859 2.0156zm0 0c-0.57031 0.65625-0.57031 1.6016 0 1.8398v0.003906c0.27344 0.15234 0.60547 0.15234 0.87891 0 0.15234 0 0.19922-0.15234 0.24219-0.28516 0.011719-0.21094 0.011719-0.42578 0-0.63672-0.085937-1.0703 0.26172-2.125 0.96484-2.9375-0.73047 0.63281-1.4258 1.3086-2.0859 2.0156zm0 0c-0.57031 0.65625-0.57031 1.6016 0 1.8398v0.003906c0.27344 0.15234 0.60547 0.15234 0.87891 0 0.15234 0 0.19922-0.15234 0.24219-0.28516 0.011719-0.21094 0.011719-0.42578 0-0.63672-0.085937-1.0703 0.26172-2.125 0.96484-2.9375-0.73047 0.63281-1.4258 1.3086-2.0859 2.0156zm0 0c-0.57031 0.65625-0.57031 1.6016 0 1.8398v0.003906c0.27344 0.15234 0.60547 0.15234 0.87891 0 0.15234 0 0.19922-0.15234 0.24219-0.28516 0.011719-0.21094 0.011719-0.42578 0-0.63672-0.085937-1.0703 0.26172-2.125 0.96484-2.9375-0.73047 0.63281-1.4258 1.3086-2.0859 2.0156zm0 0c-0.57031 0.65625-0.57031 1.6016 0 1.8398v0.003906c0.27344 0.15234 0.60547 0.15234 0.87891 0 0.15234 0 0.19922-0.15234 0.24219-0.28516 0.011719-0.21094 0.011719-0.42578 0-0.63672-0.085937-1.0703 0.26172-2.125 0.96484-2.9375-0.73047 0.63281-1.4258 1.3086-2.0859 2.0156zm0 0c-0.57031 0.65625-0.57031 1.6016 0 1.8398v0.003906c0.27344 0.15234 0.60547 0.15234 0.87891 0 0.15234 0 0.19922-0.15234 0.24219-0.28516 0.011719-0.21094 0.011719-0.42578 0-0.63672-0.085937-1.0703 0.26172-2.125 0.96484-2.9375-0.73047 0.63281-1.4258 1.3086-2.0859 2.0156z"/>
  <path d="m292.69 260c-1.082 0.62891-2.2227 1.1562-3.3984 1.5781-0.45312 0.21875-0.98047 0.22266-1.4336 0.003906s-0.78125-0.63281-0.89062-1.1211c0-0.46094 0-1.0078 0.37109-1.0508 0.37109-0.042969 0.87891 0 1.4922 0.35156v-0.003906c1.2148 0.53906 2.5859 0.625 3.8594 0.24219z"/>
  <path d="m433.2 470.41-0.70312 0.92188 0.74609-0.96484z"/>
  <path d="m400.91 304.96v0.19922-0.003906c0.007813-0.0625 0.007813-0.12891 0-0.19531z"/>
  <path d="m450.55 300.75c-3.0273-6.1016-7.5547-11.336-13.156-15.215-0.54688-1.293-1.1602-2.5859-1.8203-3.8359-1.9102-3.6836-4.1641-7.1758-6.7305-10.438l6.2266 2.8945c13.156 6.0742 15.48 26.594 15.48 26.594z"/>
  <path d="m413.27 261.25-4.8008-2.6328c1.6758 0.73828 3.2812 1.6172 4.8008 2.6328z"/>
  <path d="m441.78 272.95c-5.1758-5.2422-12.117-8.3672-19.469-8.7695-4.6445-4.4648-10.184-7.8945-16.246-10.062 2.1914-0.085938 4.3906-0.027344 6.5742 0.17578 16.641 1.3594 28.176 17.34 29.141 18.656z"/>
  <path d="m443.97 346.75s3.1367-11.137-3.8594-19.098c0.4375-1.5352 0.8125-3.1133 1.1602-4.7148h0.003907c0.51562-2.2148 0.88672-4.4648 1.1172-6.7305 1.168 2.7695 2.6406 5.4023 4.3867 7.8516 4.5352 7.5195-2.8086 22.691-2.8086 22.691z"/>
  <path d="m426.43 367.98c3.5039-5.9062 5.082-12.758 4.5156-19.602 1.2148-1.8008 2.3359-3.668 3.3555-5.5898 1.1914-2.3008 2.25-4.6641 3.1797-7.082 0.32812 2.543 1.4023 2.4102 2.0391 7.4766 1.1172 8.418-11.973 23.613-13.09 24.797z"/>
  <path d="m427.18 352.87c-2.918 6.7305-2.1914 8.5273-3.793 15.348-1.9297 8.5938-10.961 17.539-10.961 17.539h-0.003906c3.5586-5.8828 4.4375-13.008 2.4141-19.578z"/>
  <path d="m412.18 367.98c-3.9453 6.1602-3.707 9.668-6.2695 16.113-3.2656 8.1992-13.156 12.672-13.156 12.672s6.2695-5.9414 4.9102-18z"/>
  <path d="m392.14 381.07c-3.9453 6.1836-3.2227 6.5781-5.8086 13.156-3.2656 8.1992-13.594 15.742-13.594 15.742 3.4883-6.0117 5.4297-12.789 5.6562-19.734z"/>
  <path d="m370.98 396.59c-1.6094 3.2812-2.9648 6.6836-4.0547 10.172-3.1797 7.9375-12.957 14.801-13.57 15.215 0.32812-0.61328 6.9062-12.277 6.4453-18.879 3.7266-2.0781 7.4297-4.25 11.18-6.5078z"/>
  <path d="m452.91 325s-0.89844-7.3008-10.172-14.996c-0.054688-3.9492-0.48438-7.8867-1.293-11.754 1.7109 1.7969 3.4219 2.7422 6.0312 5.1758 6.3984 6.0508 5.4336 21.574 5.4336 21.574z"/>
  <path d="m351.6 407.75c-0.72266 2.0586-1.7188 4.0117-2.957 5.8086-1.957 2.6836-3.5078 5.6367-4.6055 8.7695-0.75 2.8008-0.98828 5.7109-0.70312 8.5938-1.5469-2.0703-2.6367-4.4453-3.1992-6.9688-0.375-2.832-0.375-5.6992 0-8.5312 3.6797-2.7656 7.5078-5.3281 11.465-7.6719z"/>
  <path d="m323.38 438.53c2.4883 8.1094 5.6562 15.992 9.4688 23.57-1.9453-1.0898-3.75-2.4141-5.3711-3.9453-1.9062-1.6641-3.4727-3.6797-4.6016-5.9453-0.61719-6.3789-0.70312-9.3828 0.50391-13.68z"/>
  <path d="m336.86 446.16c-3.0859-1.1211-5.707-3.2539-7.4297-6.0508-1.5312-2.6992-2.7148-5.5781-3.5312-8.5703 0-0.28516 0.24219-0.59375 0.41797-0.98828 0.17578-0.39453 0.28516-0.57031 0.4375-0.89844 1.2461-2.293 2.7773-4.4141 4.5586-6.3164l0.13281-0.13281v0.003906c0.22266-0.27344 0.46484-0.53125 0.72266-0.76953 0.21875-0.24219 0.46094-0.52734 0.76562-0.8125 0.30859-0.28516 0.83203-0.87891 1.3164-1.3164v0.24219l0.003906 0.003907c0.16016 2.1992 0.027344 4.4102-0.39453 6.5742-0.71875 3.0117-1.082 6.0938-1.0742 9.1875 0.74219 3.5039 2.125 6.8398 4.0742 9.8438z"/>
  <path d="m381.9 477.64c-3.6758 4.4688-8.4102 7.9492-13.77 10.129-0.50391 0.19922-1.0312 0.37109-1.5586 0.52734-2.1914 0.59375-12.145-4.0781-12.145-4.0781h0.85547c3.9688 0.10938 20.852 0 26.617-6.5781z"/>
  <path d="m410.47 462.89v0.13281c0.019531 0.039062 0.019531 0.089843 0 0.12891 0.007812 0.097656 0.007812 0.19141 0 0.28516-0.78125 1.7812-1.7461 3.4805-2.875 5.0664l-0.57031 0.74609c-0.17578 0.28516-0.39453 0.54688-0.59375 0.8125 1.25-4.9531 3.1992-14.668 0.74609-19.25l0.003907-0.003906c1.9844 3.7305 3.1094 7.8594 3.2891 12.082z"/>
  <path d="m401.13 475.34c0.007813 0.042969 0.007813 0.089844 0 0.13281-0.039062 0.16016-0.11328 0.3125-0.21875 0.4375-2.3086 2.4609-4.875 4.6641-7.6523 6.5781 0-0.13281 0.37109-0.59375 0.8125-1.3359l-0.003906-0.003906c0.097656-0.1875 0.21094-0.37109 0.33203-0.54688 2.5-4.2539 7.9375-14.359 6.1602-20.281 1.5625 4.8594 1.7617 10.055 0.57031 15.02z"/>
  <path d="m393.1 472.03c-0.4375 1.2266-3.5742 9.8242-6.0508 12.938-0.27344 0.39844-0.64062 0.72266-1.0742 0.94141-1.1797 0.50391-2.4062 0.88281-3.6602 1.1406-3.0547 0.58203-6.1641 0.84766-9.2734 0.78906l0.26172-0.15234c2.0625-1.0508 16.617-8.9453 19.797-15.656z"/>
  <path d="m435.2 465.65c0.30078-2.9141 0.35156-5.8477 0.15234-8.7695-0.10937-1.6445-0.28516-3.3125-0.52734-4.9336h0.003906c1.8711-4.9336 2.6797-10.211 2.3672-15.48 0 0 5.2188 18.199-1.9961 29.184z"/>
  <path d="m433.42 449.56c-0.58203-4.4531-1.7539-8.8086-3.4844-12.957 0.93359-6.4531 0.42578-13.035-1.4922-19.27 0 0 10.875 19.535 4.9766 32.227z"/>
  <path d="m427.22 433.01c-1.7734-3.4375-4.082-6.5664-6.8398-9.2773 0.007813-0.070313 0.007813-0.14453 0-0.21875 0.011719-0.10156 0.011719-0.20312 0-0.30469-0.61328-2.4102-3.3984-12.059-7.8047-13.879 0.69922 0.19531 14.973 3.5938 14.645 23.68z"/>
  <path d="m414.63 419.04c-2.9688-1.75-6.1836-3.0508-9.5352-3.8594l-0.13281-0.24219c-0.15234-0.28516-0.32812-0.61328-0.54688-0.96484v0.003906c-2.1289-3.4844-5.7812-5.7539-9.8477-6.1172 0 0 14.516-1.8203 19.492 9.668 0.13281 0.37109 0.30859 0.76562 0.4375 1.207 0.066406 0.10938 0.089844 0.19531 0.13281 0.30469z"/>
  <path d="m400.12 415.29c-0.27344-0.10156-0.5625-0.16797-0.85156-0.19922-1.5703-0.24219-3.1602-0.28516-4.7383-0.13281h-0.57031l-1.7109 0.17578h-0.13281 0.003907c-0.25-0.16797-0.51563-0.3125-0.78906-0.4375-0.17969-0.10156-0.37109-0.18359-0.57031-0.24219-0.13281-0.070312-0.27344-0.12109-0.41797-0.15234-0.71484-0.23047-1.4492-0.41016-2.1914-0.52734-3.3281-0.36328-6.6914-0.27344-10 0.26562 10.961-6.7305 17.539-3.4219 20.414-0.8125l0.89844 0.87891s0.13281 0.13281 0.15234 0.19922l0.30859 0.39453 0.35156 0.48047z"/>
  <path d="m380.78 417.46c-2.8281 0.74609-7.5859 2.4336-7.5859 2.4336h-0.26172c-0.43359-0.085937-0.875-0.13281-1.3164-0.12891-0.41797-0.035156-0.83594-0.035156-1.25 0-3.7266 0.90625-7.2266 2.5703-10.285 4.8867 10.371-10.348 16.113-10.152 18.832-8.7695h0.003907c0.32031 0.16016 0.625 0.34375 0.92188 0.54688l0.46094 0.46094h-0.003906c0.085937 0.0625 0.16016 0.13672 0.22266 0.21875 0.11719 0.09375 0.20703 0.21484 0.26172 0.35156z"/>
  <path d="m330.31 507.84c0.39453 1.3359 0.76562 2.5 1.1172 3.5508 0.21875 0.61328 0.41797 1.2266 0.63672 1.7773 0.21875 0.54688 0.24219 0.67969 0.37109 0.98828 0.13281 0.30859 0 0 0 0h0.003906c0.007812 0.035156 0.007812 0.074218 0 0.10938v0.15234c-0.003906 0.050782-0.003906 0.10156 0 0.15234 0.19922 0.92188 0.37109 1.8203 0.48047 2.6953l0.15234 1.1602v0.003906c0.92188 8.207-2.1445 16.355-8.2422 21.926 3.4414-4.3867 2.1914-15.895 2.1914-15.895-2.8711-7.957-0.26172-16.816 1.1602-20.543l0.24219-0.65625c0.21875-0.50391 0.54688-1.4258 0.57031-1.4453 0.023437-0.027344 0.83594 4.3359 1.3164 6.0234z"/>
  <path d="m342.13 532.7c0.09375 3.1094-0.86328 6.1641-2.7188 8.6602-7.3438 9.3828-12.805 11.578-12.805 11.578 6.7969-5.0195 2.9375-11.863 6.4023-17.867v-0.003906c2.1211-4.1953 2.7695-8.9844 1.8398-13.594 0-0.39453-0.15234-0.78906-0.19922-1.1406-0.042969-0.35156 0 0 0 0-0.26172-1.25-0.52734-2.1914-0.61328-2.4766 0.046875 0.125 0.10547 0.24219 0.17578 0.35156l0.72266 1.3359c0.35156 0.63672 0.70312 1.2266 1.0508 1.8203 0.10938 0.15234 0.21875 0.35156 0.30859 0.50391 0.74609 1.1836 1.4688 2.3008 2.1914 3.3555 0.72266 1.0508 0.94141 1.4258 1.4258 2.1914l1.1836 1.8398 0.003906 0.003906 0.72266 1.1172v0.15234c0 0.21875 0.10938 0.72266 0.15234 1.4258 0.023438 0.25781 0.023438 0.51172 0 0.76953z"/>
  <path d="m355.7 529.48c-1.8438-3.8594-3.4492-7.8281-4.8008-11.883-0.51563-1.4336-0.94141-2.8984-1.2734-4.3867v-0.10938c0-0.10938-0.13281-0.52734-0.19922-0.76562h0.003907c-0.082032-0.39062-0.19922-0.77344-0.35156-1.1406l0.50391 0.32812c0.41797 0.30859 0.87891 0.61328 1.6211 1.2266l0.26172 0.21875 0.003906 0.003906c2.4688 1.7656 4.4648 4.1172 5.8086 6.8398 1.4258 4.0781 12.41 16.336 16.992 16.949-1.6211-0.15625-12.871-1.0781-18.57-7.2812z"/>
  <path d="m359.84 549.38c0.007812 0.84375-0.042969 1.6875-0.15625 2.5234v0.30859c-0.13672 1.6914-0.65625 3.332-1.5117 4.8008-1.5195 2.2109-3.6016 3.9805-6.0273 5.1289-1.375 0.72266-2.7969 1.3555-4.2539 1.8867-1.2266 0.48047-2.5 0.98828-3.707 1.5781-1.4219 0.61719-2.793 1.3516-4.0977 2.1914-0.41797 0.28516-0.78906 0.54688-1.1406 0.83203v0.003907c-0.035157-0.31641-0.035157-0.63281 0-0.94531 0.26562-1.4492 0.85938-2.8203 1.7305-4.0117 1.0234-1.4727 2.1211-2.8945 3.2891-4.2539 0.98828-1.2266 2.0391-2.4766 2.9805-3.8164v0.003906c2.4023-3.0234 3.6445-6.8008 3.5078-10.656-0.48828-3.6484-1.7344-7.1484-3.6602-10.285-0.19922-0.35156-0.37109-0.72266-0.59375-1.0742h0.003906c-0.10156-0.21875-0.21875-0.43359-0.35156-0.63672l9.0547-0.50391c0.046875 0.13672 0.10547 0.26953 0.17578 0.39453 0.21875 0.52734 0.48047 1.0977 0.74609 1.6445 0.054688 0.10547 0.097657 0.21484 0.12891 0.33203 1.9766 4.0938 3.2734 8.4844 3.8359 13 0.011719 0.14453 0.011719 0.29297 0 0.4375 0.039063 0.37109 0.050781 0.74609 0.046875 1.1172z"/>
  <path d="m354.41 574.88c-19.184 6.9492-23.547 13.156-23.547 13.156-0.13281-10.281-2.543-17.957 2.9805-24.84 3.8047-4.8984 7.3047-10.023 10.48-15.348-4.6055 7.7852-14.625 6.8398-14.625 6.8398 9.3398-2.1914 13.156-13.309 14.297-18.77 0-0.19922 0-0.39453 0.15234-0.57031 0.57031 1.0508 1.1406 2.1914 1.668 3.2227l0.32812 0.67969c0.19922 0.46094 0.37109 0.87891 0.54688 1.3359 0.17578 0.46094 0.13281 0.39453 0.19922 0.59375 0.39453 1.0625 0.66797 2.168 0.80859 3.2891v0.70312c0.12891 3.3164-0.95703 6.5664-3.0469 9.1406-1.9531 2.7617-4.3867 5.2383-6.3125 8.1797-1.0898 1.4609-1.8398 3.1445-2.1953 4.9336-0.21875 1.5742 0.10547 3.1758 0.92188 4.5391 0.125 0.21094 0.26562 0.41797 0.41797 0.61328 0 0 0.37109 0.72266 0.37109 0.76562l0.8125-1.3828 0.15234-0.35156 0.61328-0.72266c0 0.15234-0.8125 1.1602-0.76563 1.0742v0.003906c0.058594-0.11328 0.10938-0.23047 0.15234-0.35156 0.19141-0.25391 0.39844-0.49219 0.61328-0.72266 0.50781-0.48047 1.0586-0.91406 1.6445-1.2969 1.207-0.82422 2.4766-1.5586 3.793-2.1914 2.6094-1.25 5.4609-2.082 8.1133-3.5312v0.003906c2.4648-1.2227 4.625-2.9844 6.3125-5.1523l2.0625-3.0898c0-0.19922 0.39453-0.67969 0.4375-0.85547v-0.003906c0.375-1.6133 0.53125-3.2734 0.46094-4.9336l1.3594 3.8359c1.5781 7.8945 0.8125 17.609-9.207 21.203z"/>
  <path d="m370.79 559.73c0.61328-3.5977-4.9336-10.547-7.9375-13.617-0.46094-0.46094-0.85547-0.83203-1.1602-1.0977l-0.003906 0.003907c-0.29297-1.4023-0.70312-2.7734-1.2266-4.1016l-0.32812-1.0078-0.10938-0.26172c-0.8125-2.4336-1.8398-4.8438-2.918-7.2773l-0.15234-0.32812c15.457 9.5977 14.668 24.223 13.836 27.688z"/>
  <path d="m421.82 243.55c0.29688-0.38281 0.49219-0.83594 0.57031-1.3125"/>
 </g>
</svg>
