<?xml version="1.0" encoding="UTF-8"?>
<svg width="752pt" height="752pt" version="1.1" viewBox="0 0 752 752" xmlns="http://www.w3.org/2000/svg">
 <path d="m376.02 255.21c-31.949 0-57.953 26.246-57.953 58.332 0 20.297 10.426 38.219 26.16 48.66-19.008 6.3594-35.457 18.238-47.523 33.773-6.668-5.1289-14.121-9.2578-22.156-12.211 12.184-9.043 20.148-23.574 20.148-39.902 0-27.211-22.008-49.484-49.051-49.484-27.047 0-49.051 22.273-49.051 49.484 0 16.336 7.9688 30.875 20.16 39.918-32.285 11.914-55.34 43.098-55.34 79.805v25.785c0.003906 1.9648 0.78906 3.8477 2.1836 5.2305 1.3906 1.3867 3.2812 2.1602 5.2461 2.1523h113.12-0.003906c0.27344 0.03125 0.55078 0.046875 0.82422 0.046875h186.48c0.27734 0 0.55078-0.015625 0.82422-0.046875h113.12c4.0703-0.015625 7.3633-3.3125 7.3711-7.3828v-25.785c0-36.703-23.016-67.891-55.281-79.809 12.195-9.043 20.16-23.578 20.16-39.918 0-27.211-22.008-49.484-49.051-49.484-27.047 0-49.051 22.273-49.051 49.484 0 16.328 7.9648 30.859 20.148 39.902-8.0508 2.9648-15.512 7.1016-22.188 12.246-12.059-15.551-28.484-27.445-47.492-33.805 15.734-10.445 26.16-28.367 26.16-48.664 0-32.082-26.02-58.328-57.969-58.328zm0 14.801c23.895 0 43.156 19.391 43.156 43.531 0 23.949-18.961 43.152-42.59 43.457-0.19141 0-0.375-0.027344-0.5625-0.027344-0.19141 0-0.375 0.027344-0.5625 0.027344-23.629-0.30469-42.578-19.512-42.578-43.457 0-24.141 19.246-43.531 43.141-43.531zm-130.38 39.168c18.957 0 34.254 15.387 34.254 34.688 0 19.168-15.098 34.492-33.875 34.699-0.125 0-0.25-0.015625-0.375-0.015625s-0.25 0.015625-0.375 0.015625c-18.781-0.20703-33.875-15.531-33.875-34.699 0-19.301 15.293-34.688 34.254-34.688zm260.77 0c18.957 0 34.254 15.387 34.254 34.688 0 19.168-15.098 34.492-33.875 34.699-0.125 0-0.25-0.015625-0.375-0.015625s-0.25 0.015625-0.375 0.015625c-18.781-0.20703-33.875-15.531-33.875-34.699 0-19.301 15.293-34.688 34.254-34.688zm-130.95 62.621c0.19141 0 0.375 0.027344 0.5625 0.027344 0.19141 0 0.375-0.027344 0.5625-0.027344 47.387 0.30469 85.312 38.555 85.312 86.441v23.758h-171.74v-23.762c0-47.887 37.914-86.137 85.301-86.441zm-130.38 21.578c0.19141 0.003906 0.375 0.027344 0.5625 0.027344 0.19141 0 0.375-0.027344 0.5625-0.027344 16.031 0.12891 30.656 5.6562 42.301 14.902-8.332 14.746-13.152 31.766-13.152 49.957v23.703h-99.145v-18.355c0-38.914 30.598-69.906 68.867-70.211zm260.77 0c0.19141 0.003906 0.375 0.027344 0.5625 0.027344 0.19141 0 0.375-0.027344 0.5625-0.027344 38.27 0.30469 68.867 31.297 68.867 70.211v18.355h-99.203v-23.707c0-18.18-4.8086-35.191-13.121-49.934 11.652-9.2617 26.289-14.801 42.332-14.93z" fill="#e4cd76"/>
</svg>
