<?xml version="1.0" encoding="UTF-8"?>
<svg width="752pt" height="752pt" version="1.1" viewBox="0 0 752 752" xmlns="http://www.w3.org/2000/svg">
 <path d="m551.46 338.35c0.12109 42.195-15.082 83-42.785 114.83-4.3008 4.9258-11.781 5.4297-16.703 1.1289-4.9258-4.3008-5.4297-11.781-1.1289-16.707 25.484-29.492 38.648-67.656 36.762-106.59s-18.68-75.648-46.898-102.54c-28.219-26.891-65.699-41.891-104.68-41.898-38.977-0.007812-76.465 14.98-104.69 41.859-28.23 26.879-45.035 63.586-46.938 102.52-1.8984 38.93 11.25 77.102 36.723 106.6 4.3203 4.9102 3.8477 12.391-1.0625 16.711-4.9062 4.3203-12.391 3.8438-16.711-1.0625-29.676-34.105-44.949-78.402-42.598-123.55 2.2656-45.73 22.312-88.762 55.867-119.91 33.555-31.152 77.957-47.953 123.73-46.816 45.77 1.1328 89.285 20.109 121.25 52.883 31.973 32.773 49.863 76.746 49.863 122.53zm-247.14 71.68c4.2539-4.168 4.7188-10.852 1.0859-15.566-14.496-18.211-21.387-41.324-19.234-64.5 2.1523-23.176 13.184-44.621 30.781-59.852 17.602-15.23 40.41-23.062 63.656-21.863 21.855 1.2188 42.535 10.301 58.219 25.57 15.688 15.27 25.32 35.695 27.125 57.512 1.8125 22.734-5.1055 45.305-19.348 63.117-3.6484 4.6914-3.2031 11.371 1.0312 15.539 2.4023 2.3906 5.7109 3.6406 9.0938 3.4375 3.3828-0.20312 6.5195-1.8398 8.6211-4.5 18.66-23.605 27.223-53.637 23.809-83.531-3.4102-29.895-18.516-57.227-42.016-76.02s-53.48-27.52-83.395-24.273c-27.105 2.9102-52.262 15.453-70.902 35.344-18.637 19.895-29.52 45.812-30.668 73.047-1.1445 27.234 7.5195 53.977 24.418 75.367 2.082 2.6836 5.2109 4.3477 8.5977 4.5703 3.3906 0.22266 6.7109-1.0117 9.125-3.3984zm142.72 179.08-58.707-207.23c14.145-4.0039 25.465-14.621 30.363-28.48 4.8945-13.859 2.7617-29.234-5.7266-41.234-8.4844-12-22.27-19.133-36.969-19.133s-28.48 7.1328-36.969 19.133-10.621 27.375-5.7227 41.234c4.8984 13.859 16.215 24.477 30.359 28.48l-58.703 207.23z" fill="#e4cd76"/>
</svg>
